<?xml version="1.0" standalone="no"?>
<!DOCTYPE svg PUBLIC "-//W3C//DTD SVG 20010904//EN"
 "http://www.w3.org/TR/2001/REC-SVG-20010904/DTD/svg10.dtd">
<svg version="1.0" xmlns="http://www.w3.org/2000/svg"
 width="1024.000000pt" height="1280.000000pt" viewBox="0 0 1024.000000 1280.000000"
 preserveAspectRatio="xMidYMid meet">
<metadata>
Created by potrace 1.15, written by Peter Selinger 2001-2017
</metadata>
<g transform="translate(0.000000,1280.000000) scale(0.100000,-0.100000)"
fill="#000000" stroke="none">
<path d="M3230 9905 l0 -2895 -1136 -2 -1135 -3 1072 -1330 c589 -731 1524
-1891 2077 -2577 553 -687 1008 -1248 1012 -1248 6 0 511 625 3363 4165 l798
990 -1136 3 -1135 2 0 2895 0 2895 -1890 0 -1890 0 0 -2895z"/>
<path d="M0 810 l0 -810 5120 0 5120 0 0 810 0 810 -5120 0 -5120 0 0 -810z"/>
</g>
</svg>
