<svg width="80" height="80" viewBox="0 0 24 29" fill="none" xmlns="http://www.w3.org/2000/svg">
<path d="M21.6304 21.4508H7.67339L8.37417 20.0234L20.0179 20.0023C20.4117 20.0023 20.7492 19.7211 20.8195 19.332L22.432 10.3062C22.4742 10.0695 22.4109 9.82578 22.2562 9.64062C22.1797 9.5495 22.0844 9.4761 21.9767 9.42551C21.8691 9.37492 21.7517 9.34835 21.6328 9.34766L6.82026 9.29844L6.6937 8.70312C6.61401 8.32344 6.27183 8.04688 5.88276 8.04688H2.26167C2.04224 8.04688 1.83181 8.13404 1.67665 8.2892C1.52149 8.44436 1.43433 8.65479 1.43433 8.87422C1.43433 9.09364 1.52149 9.30408 1.67665 9.45924C1.83181 9.6144 2.04224 9.70156 2.26167 9.70156H5.21245L5.76558 12.3312L7.12729 18.9242L5.37417 21.7859C5.28313 21.9088 5.22829 22.0547 5.21587 22.2071C5.20344 22.3596 5.23392 22.5124 5.30386 22.6484C5.44448 22.9273 5.72808 23.1031 6.04214 23.1031H7.51401C7.20023 23.5199 7.03074 24.0275 7.0312 24.5492C7.0312 25.8758 8.10933 26.9539 9.43589 26.9539C10.7625 26.9539 11.8406 25.8758 11.8406 24.5492C11.8406 24.0266 11.6671 23.518 11.3578 23.1031H15.1335C14.8198 23.5199 14.6503 24.0275 14.6507 24.5492C14.6507 25.8758 15.7289 26.9539 17.0554 26.9539C18.382 26.9539 19.4601 25.8758 19.4601 24.5492C19.4601 24.0266 19.2867 23.518 18.9773 23.1031H21.6328C22.0874 23.1031 22.4601 22.7328 22.4601 22.2758C22.4587 22.0566 22.3707 21.8468 22.2153 21.6923C22.0599 21.5377 21.8496 21.4509 21.6304 21.4508ZM7.16479 10.9297L20.6601 10.9742L19.3382 18.3758L8.73745 18.3945L7.16479 10.9297ZM9.43589 25.2898C9.02808 25.2898 8.69526 24.957 8.69526 24.5492C8.69526 24.1414 9.02808 23.8086 9.43589 23.8086C9.8437 23.8086 10.1765 24.1414 10.1765 24.5492C10.1765 24.7456 10.0985 24.934 9.95959 25.0729C9.82069 25.2118 9.63231 25.2898 9.43589 25.2898ZM17.0554 25.2898C16.6476 25.2898 16.3148 24.957 16.3148 24.5492C16.3148 24.1414 16.6476 23.8086 17.0554 23.8086C17.4632 23.8086 17.796 24.1414 17.796 24.5492C17.796 24.7456 17.718 24.934 17.5791 25.0729C17.4402 25.2118 17.2518 25.2898 17.0554 25.2898Z" fill="black" fill-opacity="0.3"/>
<path d="M7 4L9.4 7.2" stroke="black" stroke-opacity="0.3" stroke-width="2" stroke-linecap="round"/>
<path d="M19.4 7.19995L21.8 3.99995" stroke="black" stroke-opacity="0.3" stroke-width="2" stroke-linecap="round"/>
<path d="M14.4 6V1" stroke="black" stroke-opacity="0.3" stroke-width="2" stroke-linecap="round"/>
</svg>
