<svg width="16" height="16" viewBox="0 0 16 16" fill="none" xmlns="http://www.w3.org/2000/svg">
<g clip-path="url(#clip0_4664_1486)">
<path d="M7.33334 4.66666H8.66668V5.99999H7.33334V4.66666ZM7.33334 7.33333H8.66668V11.3333H7.33334V7.33333ZM8.00001 1.33333C4.32001 1.33333 1.33334 4.31999 1.33334 7.99999C1.33334 11.68 4.32001 14.6667 8.00001 14.6667C11.68 14.6667 14.6667 11.68 14.6667 7.99999C14.6667 4.31999 11.68 1.33333 8.00001 1.33333ZM8.00001 13.3333C5.06001 13.3333 2.66668 10.94 2.66668 7.99999C2.66668 5.05999 5.06001 2.66666 8.00001 2.66666C10.94 2.66666 13.3333 5.05999 13.3333 7.99999C13.3333 10.94 10.94 13.3333 8.00001 13.3333Z" fill="black"/>
</g>
<defs>
<clipPath id="clip0_4664_1486">
<rect width="16" height="16" fill="white"/>
</clipPath>
</defs>
</svg>
