<svg fill="none" height="44" viewBox="0 0 51 44" width="51" xmlns="http://www.w3.org/2000/svg"><path d="m46.2746 34.705 4.5431-24.74999c.011-.10961.011-.2204 0-.33 0-.36468-.1196-.71441-.3326-.97228-.213-.25786-.5019-.40272-.8031-.40272h-36.4129l-1.6128-7.273754c-.0708-.283046-.2152-.530895-.4116-.706759s-.4344-.27036991-.6787-.26949092h-8.58648c-.30122 0-.59011.14486592-.80311.40272792-.212999.257863-.33266.607596-.33266.972276 0 .36467.119661.71441.33266.97227.213.25786.50189.40273.80311.40273h7.72325l7.04183 32.02379c.0475.1917.129.3685.2389.5182.1099.1496.2454.2684.3971.348-.424.865-.644 1.8542-.636 2.86 0 1.4587.4786 2.8576 1.3306 3.8891.852 1.0314 2.0075 1.6109 3.2125 1.6109 1.2049 0 2.3604-.5795 3.2124-1.6109.852-1.0315 1.3306-2.4304 1.3306-3.8891-.0048-.9672-.2203-1.9158-.6246-2.75h12.607c-.4043.8342-.6198 1.7828-.6246 2.75 0 1.4587.4786 2.8576 1.3306 3.8891.852 1.0314 2.0075 1.6109 3.2125 1.6109 1.2049 0 2.3604-.5795 3.2124-1.6109.852-1.0315 1.3306-2.4304 1.3306-3.8891-.0036-1.0157-.2394-2.0104-.6814-2.8737.1651-.0785.3127-.2027.4311-.3627.1183-.16.2041-.3513.2503-.5586zm-4.668-23.705h6.6556l-1.0108 5.5h-6.1445zm-27.7355 0h7.5301l.4998 5.5h-6.8147zm3.0438 13.75-1.2152-5.5h6.4625l.5111 5.5zm.6133 2.75h5.395l.4997 5.5h-4.668zm3.7595 13.75c-.4493 0-.8885-.1613-1.2621-.4635-.3735-.3021-.6647-.7316-.8366-1.2341s-.2169-1.0554-.1292-1.5889c.0876-.5334.3039-1.0234.6216-1.408s.7225-.6465 1.1631-.7527c.4406-.1061.8974-.0516 1.3124.1565.4151.2082.7699.5607 1.0195 1.0129s.3828.9839.3828 1.5278c0 .7294-.2393 1.4288-.6653 1.9445-.426.5158-1.0038.8055-1.6062.8055zm9.0861-8.25h-4.668l-.4997-5.5h5.1677zm0-8.25h-5.4176l-.5111-5.5h5.9287zm0-8.25h-6.1786l-.4997-5.5h6.6783zm6.9396 16.5h-4.668v-5.5h5.1677zm.761-8.25h-5.429v-5.5h5.9287zm.7609-8.25h-6.1899v-5.5h6.6783zm2.8963 24.75c-.4493 0-.8885-.1613-1.2621-.4635-.3735-.3021-.6647-.7316-.8366-1.2341s-.2169-1.0554-.1292-1.5889c.0876-.5334.3039-1.0234.6216-1.408s.7225-.6465 1.1631-.7527c.4406-.1061.8974-.0516 1.3124.1565.4151.2082.7699.5607 1.0195 1.0129s.3828.9839.3828 1.5278c0 .7294-.2393 1.4288-.6653 1.9445-.426.5158-1.0038.8055-1.6062.8055zm2.4987-8.25h-4.634l.4997-5.5h5.1451zm-3.873-8.25.5111-5.5h5.8946l-1.0108 5.5z" fill="#fff"/></svg>