<svg width="55" height="17" viewBox="0 0 55 17" fill="none" xmlns="http://www.w3.org/2000/svg">
<path d="M10.52 11.86C10.52 12.6733 10.32 13.4133 9.92 14.08C9.52 14.7333 8.92 15.2533 8.12 15.64C7.32 16.0133 6.31333 16.2 5.1 16.2C4.54 16.2 4.02 16.1667 3.54 16.1C3.06 16.0333 2.6 15.94 2.16 15.82C1.73333 15.6867 1.31333 15.52 0.9 15.32V12.22C1.62 12.5533 2.35333 12.8333 3.1 13.06C3.86 13.2867 4.58667 13.4 5.28 13.4C5.72 13.4 6.07333 13.3467 6.34 13.24C6.62 13.12 6.82 12.9667 6.94 12.78C7.07333 12.58 7.14 12.3533 7.14 12.1C7.14 11.7933 7.03333 11.5333 6.82 11.32C6.62 11.0933 6.32 10.88 5.92 10.68C5.52 10.4667 5.03333 10.2267 4.46 9.96C4.03333 9.77333 3.61333 9.56 3.2 9.32C2.8 9.06667 2.43333 8.78 2.1 8.46C1.78 8.12667 1.52 7.73333 1.32 7.28C1.13333 6.81333 1.04 6.26667 1.04 5.64C1.04 4.74667 1.24667 4 1.66 3.4C2.08667 2.78667 2.68 2.32 3.44 2C4.2 1.68 5.09333 1.52 6.12 1.52C6.96 1.52 7.73333 1.61333 8.44 1.8C9.14667 1.98667 9.83333 2.22667 10.5 2.52L9.42 5.18C8.78 4.9 8.18 4.68667 7.62 4.54C7.07333 4.38 6.54 4.3 6.02 4.3C5.66 4.3 5.36 4.35333 5.12 4.46C4.88 4.55333 4.7 4.69333 4.58 4.88C4.46 5.05333 4.4 5.26 4.4 5.5C4.4 5.78 4.49333 6.02667 4.68 6.24C4.86667 6.44 5.16 6.64667 5.56 6.86C5.96 7.07333 6.48667 7.33333 7.14 7.64C7.84667 7.96 8.45333 8.30667 8.96 8.68C9.46667 9.05333 9.85333 9.49333 10.12 10C10.3867 10.4933 10.52 11.1133 10.52 11.86ZM24.8895 16H21.4895V10H16.3695V16H12.9495V1.72H16.3695V7.18H21.4895V1.72H24.8895V16ZM41.3825 8.84C41.3825 9.94667 41.2492 10.9533 40.9825 11.86C40.7158 12.7533 40.3025 13.5267 39.7425 14.18C39.1825 14.8333 38.4692 15.3333 37.6025 15.68C36.7358 16.0267 35.7092 16.2 34.5225 16.2C33.3492 16.2 32.3292 16.0267 31.4625 15.68C30.5958 15.32 29.8825 14.82 29.3225 14.18C28.7625 13.5267 28.3425 12.7467 28.0625 11.84C27.7958 10.9333 27.6625 9.92667 27.6625 8.82C27.6625 7.34 27.9025 6.05333 28.3825 4.96C28.8758 3.86667 29.6292 3.02 30.6425 2.42C31.6692 1.80667 32.9692 1.5 34.5425 1.5C36.1292 1.5 37.4225 1.80667 38.4225 2.42C39.4358 3.02 40.1825 3.87333 40.6625 4.98C41.1425 6.07333 41.3825 7.36 41.3825 8.84ZM31.2425 8.84C31.2425 9.77333 31.3558 10.58 31.5825 11.26C31.8092 11.9267 32.1625 12.44 32.6425 12.8C33.1358 13.16 33.7625 13.34 34.5225 13.34C35.3092 13.34 35.9425 13.16 36.4225 12.8C36.9025 12.44 37.2492 11.9267 37.4625 11.26C37.6892 10.58 37.8025 9.77333 37.8025 8.84C37.8025 7.42667 37.5492 6.32 37.0425 5.52C36.5492 4.72 35.7158 4.32 34.5425 4.32C33.7692 4.32 33.1358 4.50667 32.6425 4.88C32.1625 5.24 31.8092 5.76 31.5825 6.44C31.3558 7.10667 31.2425 7.90667 31.2425 8.84ZM48.9005 1.72C50.7271 1.72 52.0738 2.12 52.9405 2.92C53.8205 3.70667 54.2605 4.80667 54.2605 6.22C54.2605 6.86 54.1671 7.47333 53.9805 8.06C53.7938 8.63333 53.4805 9.14667 53.0405 9.6C52.6138 10.0533 52.0471 10.4133 51.3405 10.68C50.6471 10.9467 49.7871 11.08 48.7605 11.08H47.5605V16H44.1605V1.72H48.9005ZM48.7805 4.5H47.5605V8.3H48.4605C48.9271 8.3 49.3338 8.23333 49.6805 8.1C50.0405 7.96667 50.3205 7.75333 50.5205 7.46C50.7205 7.16667 50.8205 6.78667 50.8205 6.32C50.8205 5.73333 50.6538 5.28667 50.3205 4.98C49.9871 4.66 49.4738 4.5 48.7805 4.5Z" fill="white"/>
</svg>
