<svg xmlns="http://www.w3.org/2000/svg" viewBox="0 0 256 256"><defs><style>.cls-1{fill:#ddd;}.cls-2{fill:#fff;}</style></defs><g id="레이어_2" data-name="레이어 2"><g id="레이어_1-2" data-name="레이어 1"><rect class="cls-1" width="256" height="256"/><path d="M86.52,166.41c1,1.22,1.08,2.75.07,3.36s-2.21-.05-3-1.13c-.32-.44-.89-1.19-1.47-1.85a12.42,12.42,0,0,1-1.48,1.92,3.8,3.8,0,0,1-3.15,1.39,5.14,5.14,0,0,1-2.65-.64c-.36-.21-.5-.37-.19-.37a2.5,2.5,0,0,0,1.31-.56,17.1,17.1,0,0,0,5-7.17c.28-.7.26-1-.07-1.43s-.4-.47-.28-.75a3,3,0,0,1,1-1,.79.79,0,0,1,.94,0,6.15,6.15,0,0,1,1.6,1.12c.7.71.68,1.29.35,2.47a15.82,15.82,0,0,1-1,2.54A11.25,11.25,0,0,1,86.52,166.41Zm8.73-.84c0,.72-1,1.29-2.09,1.34-.4,0-.94,0-1.45,0,0,.84,0,1.57,0,2.09a8.16,8.16,0,0,1-.58,3.12,17.3,17.3,0,0,0-1.37,3.06,8,8,0,0,1-1.71-4.7c.07-3.17.21-9.49.14-12.42a2.92,2.92,0,0,0-.8-2.21c-.56-.66-.3-.94.5-1.6s1.08-.77,1.87-.19a3.5,3.5,0,0,1,1.81,3.48c0,1.6,0,3.83,0,5.94a6.64,6.64,0,0,0,.8-.16,1.52,1.52,0,0,1,1.43.42C94.41,164.21,95.25,165.12,95.25,165.57Z"/><path d="M100.33,166.06a4.28,4.28,0,0,1-2.8.87,3.67,3.67,0,0,1-2.32-1.08c-.12-.12-.14-.28,0-.31a3.63,3.63,0,0,0,1.53-.63,27.09,27.09,0,0,0,4.83-4.86c-1,0-2.13.09-2.65.07a3.41,3.41,0,0,1-2.47-1.5.68.68,0,0,1,0-.92c.14-.14.45-.47.68-.68A.6.6,0,0,1,98,157a3.31,3.31,0,0,0,1.44.35,38.4,38.4,0,0,0,4.22-.14,9.08,9.08,0,0,1,.92-.12,1.15,1.15,0,0,1,1,.54c.54.78.61,1.22-.16,2.42-.38.59-1,1.41-1.67,2.28a6.35,6.35,0,0,1,2.47,1.48,2.13,2.13,0,0,1,.09,2.72c-.45.47-2,.38-2.86-.61-.24-.28-1-1.13-1.34-1.64A17.09,17.09,0,0,1,100.33,166.06Zm11.06,7.84a2.71,2.71,0,0,1-1.34.45c-1.2.05-4,.12-5.5,0a3,3,0,0,1-2.77-1.29c-.61-.77-1.53-2-2.21-2.82-.28-.35-.94-.58-1.1-1a.83.83,0,0,1,.26-.87,3.34,3.34,0,0,1,1.83-.77,1.21,1.21,0,0,1,1.22.35c.38.45,1.57,1.88,2.19,2.54a1.89,1.89,0,0,0,1.52.68,12.55,12.55,0,0,0,3.59-.19,2.93,2.93,0,0,1,1.74-.21A4.59,4.59,0,0,1,112.3,172C112.82,172.73,112.44,173.25,111.39,173.9ZM108,155.73c-.47-.71-.33-.94.33-1.48s1-.75,1.57-.33a5.28,5.28,0,0,1,1.32,1.22,3.69,3.69,0,0,1,.61,2.47c0,2.41,0,6.38-.07,8a7.08,7.08,0,0,1-2.12,4.18c-.14-1-.91-1.69-1.1-2.7a14,14,0,0,1-.19-2.63c.05-1.27.21-4.82.24-6.69A2.59,2.59,0,0,0,108,155.73Z"/><path d="M140.6,165.43c0,.63-.66,1.08-1.15,1.29a2,2,0,0,1-1.2.09,22,22,0,0,0-4.08-.37c-.29,0-.69,0-1.18,0,0,.42,0,.87,0,1a2.64,2.64,0,0,1-2,2.63,3.57,3.57,0,0,1-1.53-2.53c0-.17,0-.59,0-1l-6,.26a4.27,4.27,0,0,1-2.91-1.36.67.67,0,0,1,0-.73,6.16,6.16,0,0,1,.68-1.13c.4-.4.73-.12,1.39.07a5.08,5.08,0,0,0,1.64.17c.85,0,3.62-.15,5-.22a67.66,67.66,0,0,1,9.35,0C139.38,163.73,140.6,164.7,140.6,165.43Zm-17.54-4.58a6.1,6.1,0,0,0,1.88-.26,25.09,25.09,0,0,0,6.57-3.05c-1,.09-2.53.21-3.5.25a3.65,3.65,0,0,1-2.93-1.41c-.33-.39-.26-.82.21-1.36a1.12,1.12,0,0,1,1.52-.3,4.64,4.64,0,0,0,2,.4,47.24,47.24,0,0,0,4.84-.31c1.36-.21,1.83-.33,2.44.59s.24,1.22-.79,2.35c-.29.3-.66.65-1.06,1a13.49,13.49,0,0,1,2.32.75c.83.4,1.3,1.88.71,2.49a2.3,2.3,0,0,1-3,.09,17.89,17.89,0,0,0-2.51-1.48,17.58,17.58,0,0,1-4.07,2.07C125.55,163.36,124.07,162.21,123.06,160.85ZM137.83,172a.93.93,0,0,1,.09.94,3.93,3.93,0,0,1-1,1,2.73,2.73,0,0,1-1.34.44c-1.19,0-4.69.17-6.24.17a2.87,2.87,0,0,1-2.77-1.29c-.66-.78-1.27-1.56-2.07-2.35a3.31,3.31,0,0,0-.54-.52c-.21-.14-.47-.28-.56-.49a.56.56,0,0,1,.14-.61,3.27,3.27,0,0,1,1.69-.92,1.16,1.16,0,0,1,1.22.26c.37.37,1.41,1.5,2,2.14a2.06,2.06,0,0,0,1,.63,23.69,23.69,0,0,0,2.72,0c.87,0,1.79-.07,2.7-.18s1.29-.4,1.69-.33A3.25,3.25,0,0,1,137.83,172Z"/><path d="M152.44,160c.07,1.25.11,6.79,0,8-.1,1-.57,1.69-1.55,1.66a1.1,1.1,0,0,1-.94-.51c-1.27,0-3.76.09-5,.11a1.3,1.3,0,0,1-1,.57c-.51,0-1.17-.8-1.26-1.25a11,11,0,0,1-.12-1.92c0-1.18.05-3.93.05-5a1.79,1.79,0,0,0-.38-1.22c-.16-.25-.28-.49-.09-.77a6.7,6.7,0,0,1,1.08-1.11.86.86,0,0,1,.86,0,7.52,7.52,0,0,1,.8.61,1.77,1.77,0,0,1,.66,1.31,12.72,12.72,0,0,1,.09,1.37l1.08-.15a1.32,1.32,0,0,1,1.13.15,3.92,3.92,0,0,1,1.32,1.78,2.43,2.43,0,0,1-1.65,1,5,5,0,0,1-.77-.07H145.6c0,.66,0,1.29,0,1.88l3.88,0c0-1.88-.07-5.26-.07-6.06a1.61,1.61,0,0,0-.42-1.15c-.17-.19-.21-.42.21-.85a6.21,6.21,0,0,1,1-.84c.33-.19.54,0,.89.19A2.46,2.46,0,0,1,152.44,160ZM156,175.2a5.55,5.55,0,0,0-.63-2.35,8.84,8.84,0,0,1-.4-3.78c.1-3.34.14-8.44.05-11a3.13,3.13,0,0,0-.66-2.21c-.56-.66-.3-.94.49-1.6s1.08-.77,1.88-.19a3.53,3.53,0,0,1,1.81,3.48c.05,3.31.14,9.3.14,11.46A10.07,10.07,0,0,1,156,175.2Z"/><path d="M181.25,164.84c0,.54-.87,1-1.31,1.13a2,2,0,0,1-1.13.14,27.07,27.07,0,0,0-4-.28h-2v.32a4.18,4.18,0,0,1-.07.87c2.4.47,4.65,2.28,4.44,4.49s-3.19,3.38-5.71,3.38c-3.09,0-6.31-1.39-6.31-3.85a4,4,0,0,1,0-.92c.3-1.34,2.63-2.51,4.48-2.84a4.41,4.41,0,0,1-.16-.82c0-.09,0-.31,0-.56-2.38,0-4.84.11-5.81.16a3,3,0,0,1-2.27-.82c-.45-.38-.71-.54-.38-1.11s.85-1.29,1.25-1.22a16.2,16.2,0,0,0,2.48.17c2.82,0,11.37-.43,14.45-.07C180,163.1,181.27,164.06,181.25,164.84Zm-16.13-3c-.75-.44-1.15-1.08-1.79-1.38a11.35,11.35,0,0,0,1.93-.38,22.65,22.65,0,0,0,6.43-2.63l-3,.19a3,3,0,0,1-1.55-.21,3.46,3.46,0,0,1-1.58-1.29.79.79,0,0,1,.24-1.2,1.13,1.13,0,0,1,1.45-.26,3.86,3.86,0,0,0,2.05.4c1,0,3.73-.16,4.69-.24,1.37-.09,1.93-.35,2.45.59s.35,1.2-.73,2.28a11,11,0,0,1-1,.87,4.76,4.76,0,0,1,2.72,1.05,1.79,1.79,0,0,1-.42,2.5c-.47.28-1.64,0-2.58-.57-.61-.35-1.6-.89-2.38-1.29a21.94,21.94,0,0,1-4.08,1.86A3.72,3.72,0,0,1,165.12,161.83Zm6.27,7.56a4.26,4.26,0,0,0-3.13,1.55c.69,1,1.88,1.18,3.2,1.18,1,0,2.53-.26,2.58-1.18C174.09,170.19,172.84,169.51,171.39,169.39Z"/><path d="M162.9,88H148.34l-8.54-8.54A8.36,8.36,0,0,0,133.87,77H117.82a8.34,8.34,0,0,0-5.93,2.46L103.34,88H89.79a6.44,6.44,0,0,0-6.45,6.44v42.12A6.44,6.44,0,0,0,89.79,143H162.9a6.44,6.44,0,0,0,6.44-6.44V94.44A6.44,6.44,0,0,0,162.9,88Z"/><circle class="cls-2" cx="160.84" cy="96.5" r="2.5"/><path class="cls-2" d="M126.84,102a13.5,13.5,0,1,1-13.5,13.5,13.51,13.51,0,0,1,13.5-13.5m0-5a18.5,18.5,0,1,0,18.5,18.5A18.5,18.5,0,0,0,126.84,97Z"/></g></g></svg>