<svg width="80" height="80" viewBox="0 0 80 80" fill="none" xmlns="http://www.w3.org/2000/svg">
<rect width="80" height="80" fill="#A7A7A7" fill-opacity="0.5"/>
<path opacity="0.5" d="M36.6667 23.3333C35.8931 23.3333 35.1513 23.6406 34.6043 24.1876C34.0573 24.7346 33.75 25.4765 33.75 26.25C33.75 27.0236 34.0573 27.7654 34.6043 28.3124C35.1513 28.8594 35.8931 29.1667 36.6667 29.1667H43.3333C44.1069 29.1667 44.8488 28.8594 45.3957 28.3124C45.9427 27.7654 46.25 27.0236 46.25 26.25C46.25 25.4765 45.9427 24.7346 45.3957 24.1876C44.8488 23.6406 44.1069 23.3333 43.3333 23.3333H36.6667ZM26.4383 47.0083C25.0083 41.2883 24.2933 38.43 25.795 36.5067C27.2967 34.5833 30.245 34.5833 36.14 34.5833H43.8567C49.7533 34.5833 52.7017 34.5833 54.2033 36.5067C55.705 38.43 54.99 41.29 53.56 47.0083C52.65 50.6467 52.195 52.465 50.8383 53.525C49.4833 54.5833 47.6083 54.5833 43.8583 54.5833H36.1417C32.3917 54.5833 30.515 54.5833 29.1583 53.525C27.8033 52.465 27.3483 50.6467 26.4383 47.0083Z" fill="#505050"/>
<path d="M45.9667 27.5033C46.1539 27.113 46.2514 26.6858 46.252 26.2529C46.2525 25.82 46.1562 25.3925 45.97 25.0017C47.1083 25.01 47.9967 25.0617 48.79 25.3717C49.737 25.7421 50.5607 26.3717 51.1667 27.1883C51.7783 28.0117 52.0667 29.0667 52.46 30.5183L52.5383 30.8017L53.3917 35.7417C52.7117 35.2717 51.8333 34.9917 50.6967 34.825L50.095 31.3467C49.6217 29.6133 49.45 29.0683 49.16 28.6783C48.8336 28.2385 48.3901 27.8995 47.88 27.7C47.5133 27.5567 47.07 27.515 45.9667 27.5033ZM34.03 25C33.8435 25.391 33.7471 25.8188 33.7476 26.252C33.7482 26.6852 33.8458 27.1128 34.0333 27.5033C32.93 27.515 32.4867 27.5567 32.12 27.7C31.6099 27.8995 31.1663 28.2385 30.84 28.6783C30.55 29.0683 30.3783 29.6133 29.9067 31.345L29.3033 34.8267C28.1683 34.9933 27.29 35.2717 26.6083 35.74L27.4617 30.8033L27.54 30.52C27.935 29.0667 28.2233 28.01 28.8333 27.1867C29.4395 26.3706 30.2632 25.7417 31.21 25.3717C32.0033 25.0617 32.89 25.0083 34.03 25ZM34.5833 41.25C34.5833 40.9185 34.4516 40.6005 34.2172 40.3661C33.9828 40.1317 33.6648 40 33.3333 40C33.0018 40 32.6839 40.1317 32.4494 40.3661C32.215 40.6005 32.0833 40.9185 32.0833 41.25V47.9167C32.0833 48.2482 32.215 48.5661 32.4494 48.8006C32.6839 49.035 33.0018 49.1667 33.3333 49.1667C33.6648 49.1667 33.9828 49.035 34.2172 48.8006C34.4516 48.5661 34.5833 48.2482 34.5833 47.9167V41.25ZM46.6667 40C46.9982 40 47.3161 40.1317 47.5505 40.3661C47.785 40.6005 47.9167 40.9185 47.9167 41.25V47.9167C47.9167 48.2482 47.785 48.5661 47.5505 48.8006C47.3161 49.035 46.9982 49.1667 46.6667 49.1667C46.3351 49.1667 46.0172 49.035 45.7828 48.8006C45.5484 48.5661 45.4167 48.2482 45.4167 47.9167V41.25C45.4167 40.9185 45.5484 40.6005 45.7828 40.3661C46.0172 40.1317 46.3351 40 46.6667 40ZM41.25 41.25C41.25 40.9185 41.1183 40.6005 40.8839 40.3661C40.6495 40.1317 40.3315 40 40 40C39.6685 40 39.3505 40.1317 39.1161 40.3661C38.8817 40.6005 38.75 40.9185 38.75 41.25V47.9167C38.75 48.2482 38.8817 48.5661 39.1161 48.8006C39.3505 49.035 39.6685 49.1667 40 49.1667C40.3315 49.1667 40.6495 49.035 40.8839 48.8006C41.1183 48.5661 41.25 48.2482 41.25 47.9167V41.25Z" fill="#505050"/>
</svg>
