<svg width="32" height="32" viewBox="0 0 32 32" fill="none" xmlns="http://www.w3.org/2000/svg">
<path d="M5.58331 16L4.412 15.063L3.66237 16L4.412 16.9371L5.58331 16ZM26.4166 17.5C27.2451 17.5 27.9166 16.8285 27.9166 16C27.9166 15.1716 27.2451 14.5 26.4166 14.5V17.5ZM13.9166 5.58337L12.7453 4.64633L4.412 15.063L5.58331 16L6.75461 16.9371L15.0879 6.52042L13.9166 5.58337ZM5.58331 16L4.412 16.9371L12.7453 27.3538L13.9166 26.4167L15.0879 25.4797L6.75461 15.063L5.58331 16ZM5.58331 16V17.5H26.4166V16V14.5H5.58331V16Z" fill="white"/>
</svg>
