<svg xmlns="http://www.w3.org/2000/svg" width="14" height="14" viewBox="0 0 16 17" fill="none">
  <g clip-path="url(#clip0_3830_197)">
    <path d="M15.1533 16.0056L1.84667 2.69897L1.33333 2.18564L0.846667 1.69897L0 2.54564L2.92667 5.47231L4.4 8.57897L3.5 10.2123C3.39333 10.399 3.33333 10.619 3.33333 10.8523C3.33333 11.5856 3.93333 12.1856 4.66667 12.1856H9.64L10.56 13.1056C10.2267 13.3456 10.0067 13.739 10.0067 14.1856C10.0067 14.919 10.6 15.519 11.3333 15.519C11.78 15.519 12.1733 15.299 12.4133 14.959L14.3067 16.8523L15.1533 16.0056ZM4.94667 10.8523C4.85333 10.8523 4.78 10.779 4.78 10.6856L4.8 10.6056L5.4 9.51897H6.97333L8.30667 10.8523H4.94667ZM10.3667 9.51897C10.8667 9.51897 11.3067 9.24564 11.5333 8.83231L13.92 4.50564C13.9733 4.41231 14 4.29897 14 4.18564C14 3.81897 13.7 3.51897 13.3333 3.51897H4.36L10.3667 9.51897ZM4.66667 12.8523C3.93333 12.8523 3.34 13.4523 3.34 14.1856C3.34 14.919 3.93333 15.519 4.66667 15.519C5.4 15.519 6 14.919 6 14.1856C6 13.4523 5.4 12.8523 4.66667 12.8523Z" fill="black"/>
  </g>
  <defs>
    <clipPath id="clip0_3830_197">
      <rect width="15" height="15" fill="white" transform="translate(0 0.852295)"/>
    </clipPath>
  </defs>
</svg>