<svg xmlns="http://www.w3.org/2000/svg" viewBox="0 0 138 138"><defs><style>.cls-1{fill:#ddd;}</style></defs><g id="레이어_2" data-name="레이어 2"><g id="레이어_1-2" data-name="레이어 1"><path class="cls-1" d="M116,120.81a3.19,3.19,0,0,1-3.19,3.19H25.19A3.19,3.19,0,0,1,22,120.81V46H8v74.81A17.21,17.21,0,0,0,25.19,138h87.62A17.21,17.21,0,0,0,130,120.81V46H116Z"/><path class="cls-1" d="M113,23V14.06A14.08,14.08,0,0,0,99,0H39A14.08,14.08,0,0,0,25,14.06V23H0V37H138V23ZM39,14l60,.06V23H39Z"/><rect class="cls-1" x="47.35" y="62" width="14" height="45"/><rect class="cls-1" x="78.35" y="62" width="14" height="45"/></g></g></svg>
