<svg width="55" height="16" viewBox="0 0 55 16" fill="none" xmlns="http://www.w3.org/2000/svg">
<path d="M10.52 10.86C10.52 11.6733 10.32 12.4133 9.92 13.08C9.52 13.7333 8.92 14.2533 8.12 14.64C7.32 15.0133 6.31333 15.2 5.1 15.2C4.54 15.2 4.02 15.1667 3.54 15.1C3.06 15.0333 2.6 14.94 2.16 14.82C1.73333 14.6867 1.31333 14.52 0.9 14.32V11.22C1.62 11.5533 2.35333 11.8333 3.1 12.06C3.86 12.2867 4.58667 12.4 5.28 12.4C5.72 12.4 6.07333 12.3467 6.34 12.24C6.62 12.12 6.82 11.9667 6.94 11.78C7.07333 11.58 7.14 11.3533 7.14 11.1C7.14 10.7933 7.03333 10.5333 6.82 10.32C6.62 10.0933 6.32 9.88 5.92 9.68C5.52 9.46667 5.03333 9.22667 4.46 8.96C4.03333 8.77333 3.61333 8.56 3.2 8.32C2.8 8.06667 2.43333 7.78 2.1 7.46C1.78 7.12667 1.52 6.73333 1.32 6.28C1.13333 5.81333 1.04 5.26667 1.04 4.64C1.04 3.74667 1.24667 3 1.66 2.4C2.08667 1.78667 2.68 1.32 3.44 0.999999C4.2 0.679999 5.09333 0.519999 6.12 0.519999C6.96 0.519999 7.73333 0.613333 8.44 0.799999C9.14667 0.986666 9.83333 1.22667 10.5 1.52L9.42 4.18C8.78 3.9 8.18 3.68667 7.62 3.54C7.07333 3.38 6.54 3.3 6.02 3.3C5.66 3.3 5.36 3.35333 5.12 3.46C4.88 3.55333 4.7 3.69333 4.58 3.88C4.46 4.05333 4.4 4.26 4.4 4.5C4.4 4.78 4.49333 5.02667 4.68 5.24C4.86667 5.44 5.16 5.64667 5.56 5.86C5.96 6.07333 6.48667 6.33333 7.14 6.64C7.84667 6.96 8.45333 7.30667 8.96 7.68C9.46667 8.05333 9.85333 8.49333 10.12 9C10.3867 9.49333 10.52 10.1133 10.52 10.86ZM24.8895 15H21.4895V9H16.3695V15H12.9495V0.719999H16.3695V6.18H21.4895V0.719999H24.8895V15ZM41.3825 7.84C41.3825 8.94667 41.2492 9.95333 40.9825 10.86C40.7158 11.7533 40.3025 12.5267 39.7425 13.18C39.1825 13.8333 38.4692 14.3333 37.6025 14.68C36.7358 15.0267 35.7092 15.2 34.5225 15.2C33.3492 15.2 32.3292 15.0267 31.4625 14.68C30.5958 14.32 29.8825 13.82 29.3225 13.18C28.7625 12.5267 28.3425 11.7467 28.0625 10.84C27.7958 9.93333 27.6625 8.92667 27.6625 7.82C27.6625 6.34 27.9025 5.05333 28.3825 3.96C28.8758 2.86667 29.6292 2.02 30.6425 1.42C31.6692 0.806666 32.9692 0.5 34.5425 0.5C36.1292 0.5 37.4225 0.806666 38.4225 1.42C39.4358 2.02 40.1825 2.87333 40.6625 3.98C41.1425 5.07333 41.3825 6.36 41.3825 7.84ZM31.2425 7.84C31.2425 8.77333 31.3558 9.58 31.5825 10.26C31.8092 10.9267 32.1625 11.44 32.6425 11.8C33.1358 12.16 33.7625 12.34 34.5225 12.34C35.3092 12.34 35.9425 12.16 36.4225 11.8C36.9025 11.44 37.2492 10.9267 37.4625 10.26C37.6892 9.58 37.8025 8.77333 37.8025 7.84C37.8025 6.42667 37.5492 5.32 37.0425 4.52C36.5492 3.72 35.7158 3.32 34.5425 3.32C33.7692 3.32 33.1358 3.50667 32.6425 3.88C32.1625 4.24 31.8092 4.76 31.5825 5.44C31.3558 6.10667 31.2425 6.90667 31.2425 7.84ZM48.9005 0.719999C50.7271 0.719999 52.0738 1.12 52.9405 1.92C53.8205 2.70667 54.2605 3.80667 54.2605 5.22C54.2605 5.86 54.1671 6.47333 53.9805 7.06C53.7938 7.63333 53.4805 8.14667 53.0405 8.6C52.6138 9.05333 52.0471 9.41333 51.3405 9.68C50.6471 9.94667 49.7871 10.08 48.7605 10.08H47.5605V15H44.1605V0.719999H48.9005ZM48.7805 3.5H47.5605V7.3H48.4605C48.9271 7.3 49.3338 7.23333 49.6805 7.1C50.0405 6.96667 50.3205 6.75333 50.5205 6.46C50.7205 6.16667 50.8205 5.78667 50.8205 5.32C50.8205 4.73333 50.6538 4.28667 50.3205 3.98C49.9871 3.66 49.4738 3.5 48.7805 3.5Z" fill="white"/>
</svg>
