<svg xmlns="http://www.w3.org/2000/svg" fill="#2AC1BC" xmlns:xlink="http://www.w3.org/1999/xlink" version="1.1" x="0px" y="0px" viewBox="0 0 24 30" style="enable-background:new 0 0 24 24;" xml:space="preserve"><g><g><path d="M13.186,22.38c-0.003-0.093-0.027-0.184-0.081-0.263c-0.731-1.078-1.118-2.338-1.118-3.645v4.447    C12.425,22.834,12.823,22.637,13.186,22.38z"/><path d="M10.987,11.973H6c0.039,1.792,0.28,3.495,0.683,5h4.304V11.973z"/><path d="M10.987,4.973V0.027C9.351,0.353,7.898,2.252,6.985,4.973H10.987z"/><path d="M10.987,22.918v-4.945H6.985C7.898,20.693,9.351,22.592,10.987,22.918z"/><path d="M10.987,10.973v-5H6.683C6.28,7.478,6.039,9.18,6,10.973H10.987z"/><path d="M21.583,5.973h-4.245c0.377,1.513,0.601,3.2,0.636,5h4.987C22.884,9.169,22.402,7.469,21.583,5.973z"/><path d="M11.987,0.027v4.945h4.002C15.077,2.252,13.624,0.353,11.987,0.027z"/><path d="M5,10.973c0.035-1.8,0.259-3.487,0.636-5H1.391c-0.818,1.496-1.3,3.196-1.379,5H5z"/><path d="M5,11.973H0.013c0.078,1.804,0.56,3.504,1.379,5h4.245C5.259,15.46,5.035,13.772,5,11.973z"/><path d="M5.915,17.973H2.01c1.516,2.204,3.781,3.846,6.424,4.575C7.386,21.498,6.52,19.913,5.915,17.973z"/><path d="M17.968,11.999c0.172-0.014,0.344-0.026,0.519-0.026h-0.518C17.969,11.981,17.968,11.99,17.968,11.999z"/><path d="M5.915,4.973c0.604-1.94,1.471-3.525,2.518-4.575C5.791,1.127,3.526,2.769,2.01,4.973H5.915z"/><path d="M18.487,11.973c1.307,0,2.567,0.387,3.645,1.118c0.145,0.098,0.333,0.114,0.49,0.041c0.159-0.074,0.269-0.225,0.288-0.399    c0.03-0.278,0.049-0.525,0.061-0.759H18.487z"/><path d="M16.969,11.973h-4.982v5h0.182c0.563-2.371,2.426-4.239,4.793-4.812C16.964,12.098,16.968,12.035,16.969,11.973z"/><path d="M17.059,4.973h3.906c-1.516-2.204-3.781-3.846-6.424-4.575C15.589,1.447,16.455,3.033,17.059,4.973z"/><path d="M11.987,17.973v0.5c0-0.169,0.013-0.334,0.025-0.5H11.987z"/><path d="M11.987,5.973v5h4.987c-0.039-1.792-0.28-3.495-0.683-5H11.987z"/></g><path d="M18.487,12.973c-3.033,0-5.5,2.467-5.5,5.5s2.467,5.5,5.5,5.5s5.5-2.467,5.5-5.5S21.52,12.973,18.487,12.973z    M18.847,21.822c-0.1,0.1-0.229,0.15-0.359,0.15s-0.26-0.05-0.351-0.15c-0.1-0.1-0.149-0.22-0.149-0.35c0-0.13,0.05-0.26,0.14-0.35   c0.2-0.19,0.53-0.19,0.71,0c0.101,0.09,0.15,0.22,0.15,0.35C18.987,21.602,18.938,21.732,18.847,21.822z M18.987,19.473   c0,0.276-0.224,0.5-0.5,0.5s-0.5-0.224-0.5-0.5v-4c0-0.276,0.224-0.5,0.5-0.5s0.5,0.224,0.5,0.5V19.473z"/></g></svg>
