<svg xmlns="http://www.w3.org/2000/svg" width="32" height="32" viewBox="0 0 32 32" fill="none">
  <path d="M5.58325 15.9999L4.41195 15.0629L3.66231 15.9999L4.41195 16.937L5.58325 15.9999ZM26.4166 17.4999C27.245 17.4999 27.9166 16.8283 27.9166 15.9999C27.9166 15.1715 27.245 14.4999 26.4166 14.4999V17.4999ZM13.9166 5.58325L12.7453 4.64621L4.41195 15.0629L5.58325 15.9999L6.75456 16.937L15.0879 6.52029L13.9166 5.58325ZM5.58325 15.9999L4.41195 16.937L12.7453 27.3536L13.9166 26.4166L15.0879 25.4795L6.75456 15.0629L5.58325 15.9999ZM5.58325 15.9999V17.4999H26.4166V15.9999V14.4999H5.58325V15.9999Z" fill="white"/>
</svg>