<svg width="16" height="16" viewBox="0 0 16 16" fill="none" xmlns="http://www.w3.org/2000/svg">
<path d="M15.9453 15.1533L2.63866 1.84668L2.12533 1.33335L1.63866 0.84668L0.791992 1.69335L3.71866 4.62001L5.19199 7.72668L4.29199 9.36001C4.18533 9.54668 4.12533 9.76668 4.12533 10C4.12533 10.7333 4.72533 11.3333 5.45866 11.3333H10.432L11.352 12.2533C11.0187 12.4933 10.7987 12.8867 10.7987 13.3333C10.7987 14.0667 11.392 14.6667 12.1253 14.6667C12.572 14.6667 12.9653 14.4467 13.2053 14.1067L15.0987 16L15.9453 15.1533ZM5.73866 10C5.64533 10 5.57199 9.92668 5.57199 9.83335L5.59199 9.75335L6.19199 8.66668H7.76533L9.09866 10H5.73866ZM11.1587 8.66668C11.6587 8.66668 12.0987 8.39335 12.3253 7.98001L14.712 3.65335C14.7653 3.56001 14.792 3.44668 14.792 3.33335C14.792 2.96668 14.492 2.66668 14.1253 2.66668H5.15199L11.1587 8.66668ZM5.45866 12C4.72533 12 4.13199 12.6 4.13199 13.3333C4.13199 14.0667 4.72533 14.6667 5.45866 14.6667C6.19199 14.6667 6.79199 14.0667 6.79199 13.3333C6.79199 12.6 6.19199 12 5.45866 12Z" fill="black"/>
</svg>
