<svg xmlns="http://www.w3.org/2000/svg" width="16" height="16" viewBox="0 0 16 16" fill="none">
  <g clip-path="url(#clip0_167_783)">
    <path d="M7.33331 4.66659H8.66665V5.99992H7.33331V4.66659ZM7.33331 7.33325H8.66665V11.3333H7.33331V7.33325ZM7.99998 1.33325C4.31998 1.33325 1.33331 4.31992 1.33331 7.99992C1.33331 11.6799 4.31998 14.6666 7.99998 14.6666C11.68 14.6666 14.6666 11.6799 14.6666 7.99992C14.6666 4.31992 11.68 1.33325 7.99998 1.33325ZM7.99998 13.3333C5.05998 13.3333 2.66665 10.9399 2.66665 7.99992C2.66665 5.05992 5.05998 2.66659 7.99998 2.66659C10.94 2.66659 13.3333 5.05992 13.3333 7.99992C13.3333 10.9399 10.94 13.3333 7.99998 13.3333Z" fill="black"/>
  </g>
  <defs>
    <clipPath id="clip0_167_783">
      <rect width="16" height="16" fill="white"/>
    </clipPath>
  </defs>
</svg>