<svg width="25" height="22" viewBox="0 0 25 22" fill="none" xmlns="http://www.w3.org/2000/svg">
<path d="M2.27577 17.3525L0.00422287 4.9775C-0.00124931 4.9227 -0.00124931 4.8673 0.00422287 4.8125C0.00422287 4.63017 0.0640526 4.4553 0.170551 4.32637C0.27705 4.19744 0.421495 4.125 0.572107 4.125H18.7785L19.5849 0.488128C19.6204 0.346605 19.6925 0.222681 19.7907 0.134749C19.8889 0.0468165 20.008 -0.000436457 20.1301 3.03821e-06H24.4233C24.5739 3.03821e-06 24.7184 0.0724359 24.8249 0.201367C24.9314 0.330298 24.9912 0.505167 24.9912 0.687503C24.9912 0.869839 24.9314 1.04471 24.8249 1.17364C24.7184 1.30257 24.5739 1.375 24.4233 1.375H20.5617L17.0408 17.3869C17.017 17.4827 16.9763 17.5712 16.9213 17.646C16.8664 17.7208 16.7986 17.7802 16.7228 17.82C16.9348 18.2525 17.0448 18.7471 17.0408 19.25C17.0408 19.9793 16.8015 20.6788 16.3755 21.1945C15.9495 21.7103 15.3717 22 14.7693 22C14.1668 22 13.589 21.7103 13.163 21.1945C12.737 20.6788 12.4977 19.9793 12.4977 19.25C12.5001 18.7664 12.6079 18.2921 12.8101 17.875H6.50652C6.70869 18.2921 6.81642 18.7664 6.81886 19.25C6.81886 19.9793 6.57953 20.6788 6.15353 21.1945C5.72754 21.7103 5.14976 22 4.54731 22C3.94486 22 3.36708 21.7103 2.94109 21.1945C2.51509 20.6788 2.27577 19.9793 2.27577 19.25C2.27757 18.7421 2.3955 18.2448 2.6165 17.8131C2.53394 17.7739 2.46011 17.7118 2.40094 17.6318C2.34177 17.5518 2.2989 17.4562 2.27577 17.3525ZM4.60978 5.5H1.28197L1.78738 8.25H4.85965L4.60978 5.5ZM18.4776 5.5H14.7125L14.4626 8.25H17.8699L18.4776 5.5ZM16.9556 12.375L17.5633 9.625H14.332L14.0764 12.375H16.9556ZM16.649 13.75H13.9515L13.7016 16.5H16.0356L16.649 13.75ZM14.7693 20.625C14.9939 20.625 15.2135 20.5444 15.4003 20.3933C15.587 20.2422 15.7326 20.0274 15.8186 19.7762C15.9045 19.5249 15.927 19.2485 15.8832 18.9818C15.8394 18.715 15.7312 18.47 15.5724 18.2777C15.4135 18.0854 15.2112 17.9545 14.9908 17.9014C14.7705 17.8484 14.5422 17.8756 14.3346 17.9797C14.1271 18.0837 13.9497 18.26 13.8249 18.4861C13.7001 18.7122 13.6335 18.9781 13.6335 19.25C13.6335 19.6147 13.7531 19.9644 13.9661 20.2223C14.1791 20.4801 14.468 20.625 14.7693 20.625ZM10.2262 16.5H12.5602L12.8101 13.75H10.2262V16.5ZM10.2262 12.375H12.935L13.1905 9.625H10.2262V12.375ZM10.2262 8.25H13.3155L13.5653 5.5H10.2262V8.25ZM6.75639 16.5H9.0904V13.75H6.50652L6.75639 16.5ZM6.3759 12.375H9.0904V9.625H6.12603L6.3759 12.375ZM5.99542 8.25H9.0904V5.5H5.75123L5.99542 8.25ZM4.54731 20.625C4.77195 20.625 4.99154 20.5444 5.17831 20.3933C5.36509 20.2422 5.51066 20.0274 5.59663 19.7762C5.68259 19.5249 5.70508 19.2485 5.66126 18.9818C5.61744 18.715 5.50926 18.47 5.35042 18.2777C5.19158 18.0854 4.98921 17.9545 4.76889 17.9014C4.54857 17.8484 4.32021 17.8756 4.11267 17.9797C3.90513 18.0837 3.72775 18.26 3.60295 18.4861C3.47815 18.7122 3.41154 18.9781 3.41154 19.25C3.41154 19.6147 3.5312 19.9644 3.7442 20.2223C3.9572 20.4801 4.24609 20.625 4.54731 20.625ZM3.29796 16.5H5.61494L5.36507 13.75H2.79254L3.29796 16.5ZM5.23445 12.375L4.9789 9.625H2.03157L2.53699 12.375H5.23445Z" fill="#AAAAAA"/>
</svg>
