<svg width="32" height="32" viewBox="0 0 32 32" fill="none" xmlns="http://www.w3.org/2000/svg">
<path d="M5.58325 16L4.41195 15.063L3.66231 16L4.41195 16.9371L5.58325 16ZM26.4166 17.5C27.245 17.5 27.9166 16.8285 27.9166 16C27.9166 15.1716 27.245 14.5 26.4166 14.5V17.5ZM13.9166 5.58336L12.7453 4.64632L4.41195 15.063L5.58325 16L6.75456 16.9371L15.0879 6.52041L13.9166 5.58336ZM5.58325 16L4.41195 16.9371L12.7453 27.3537L13.9166 26.4167L15.0879 25.4797L6.75456 15.063L5.58325 16ZM5.58325 16V17.5H26.4166V16V14.5H5.58325V16Z" fill="white"/>
</svg>
