<svg width="14" height="14" viewBox="0 0 14 14" fill="none" xmlns="http://www.w3.org/2000/svg">
<path d="M6.33333 3.66665H7.66666V4.99998H6.33333V3.66665ZM6.33333 6.33331H7.66666V10.3333H6.33333V6.33331ZM6.99999 0.333313C3.31999 0.333313 0.333328 3.31998 0.333328 6.99998C0.333328 10.68 3.31999 13.6666 6.99999 13.6666C10.68 13.6666 13.6667 10.68 13.6667 6.99998C13.6667 3.31998 10.68 0.333313 6.99999 0.333313ZM6.99999 12.3333C4.05999 12.3333 1.66666 9.93998 1.66666 6.99998C1.66666 4.05998 4.05999 1.66665 6.99999 1.66665C9.93999 1.66665 12.3333 4.05998 12.3333 6.99998C12.3333 9.93998 9.93999 12.3333 6.99999 12.3333Z" fill="black"/>
</svg>
