<svg width="14" height="14" viewBox="0 0 14 14" fill="none" xmlns="http://www.w3.org/2000/svg">
<path d="M6.33331 3.66665H7.66665V4.99998H6.33331V3.66665ZM6.33331 6.33331H7.66665V10.3333H6.33331V6.33331ZM6.99998 0.333313C3.31998 0.333313 0.333313 3.31998 0.333313 6.99998C0.333313 10.68 3.31998 13.6666 6.99998 13.6666C10.68 13.6666 13.6666 10.68 13.6666 6.99998C13.6666 3.31998 10.68 0.333313 6.99998 0.333313ZM6.99998 12.3333C4.05998 12.3333 1.66665 9.93998 1.66665 6.99998C1.66665 4.05998 4.05998 1.66665 6.99998 1.66665C9.93998 1.66665 12.3333 4.05998 12.3333 6.99998C12.3333 9.93998 9.93998 12.3333 6.99998 12.3333Z" fill="black"/>
</svg>
