<svg width="16" height="16" viewBox="0 0 16 16" fill="none" xmlns="http://www.w3.org/2000/svg">
<g clip-path="url(#clip0_155_2291)">
<path d="M7.33301 4.66634H8.66634V5.99967H7.33301V4.66634ZM7.33301 7.33301H8.66634V11.333H7.33301V7.33301ZM7.99967 1.33301C4.31967 1.33301 1.33301 4.31967 1.33301 7.99967C1.33301 11.6797 4.31967 14.6663 7.99967 14.6663C11.6797 14.6663 14.6663 11.6797 14.6663 7.99967C14.6663 4.31967 11.6797 1.33301 7.99967 1.33301ZM7.99967 13.333C5.05967 13.333 2.66634 10.9397 2.66634 7.99967C2.66634 5.05967 5.05967 2.66634 7.99967 2.66634C10.9397 2.66634 13.333 5.05967 13.333 7.99967C13.333 10.9397 10.9397 13.333 7.99967 13.333Z" fill="black"/>
</g>
<defs>
<clipPath id="clip0_155_2291">
<rect width="16" height="16" fill="white"/>
</clipPath>
</defs>
</svg>
