<svg width="182" height="112" viewBox="0 0 182 112" fill="none" xmlns="http://www.w3.org/2000/svg">
<rect width="182" height="112" fill="white"/>
<path d="M81 48.47L82.3 47.2L99.8 64.72L98.53 66L96.53 64H83.8C83.2696 64 82.7609 63.7893 82.3858 63.4142C82.0107 63.0391 81.8 62.5304 81.8 62V50C81.8 49.78 81.84 49.57 81.9 49.37L81 48.47ZM86.8 48L88.8 46H94.8L96.8 48H99.8C100.33 48 100.839 48.2107 101.214 48.5858C101.589 48.9609 101.8 49.4696 101.8 50V62C101.8 62.6 101.54 63.13 101.12 63.5L96.13 58.5C96.56 57.77 96.8 56.91 96.8 56C96.8 54.6739 96.2732 53.4021 95.3355 52.4645C94.3979 51.5268 93.1261 51 91.8 51C90.89 51 90.03 51.24 89.3 51.67L85.62 48H86.8ZM86.8 56C86.8 57.3261 87.3268 58.5979 88.2645 59.5355C89.2021 60.4732 90.4739 61 91.8 61C92.3 61 92.83 60.92 93.3 60.77L91.52 59C90.8242 58.9254 90.1748 58.6149 89.68 58.12C89.1851 57.6252 88.8746 56.9758 88.8 56.28L87.03 54.5C86.88 54.97 86.8 55.5 86.8 56ZM91.8 53C92.5956 53 93.3587 53.3161 93.9213 53.8787C94.4839 54.4413 94.8 55.2044 94.8 56C94.8005 56.3406 94.743 56.6787 94.63 57L90.8 53.17C91.1213 53.057 91.4594 52.9995 91.8 53Z" fill="#363636"/>
</svg>
