<?xml version="1.0" standalone="no"?>
<!DOCTYPE svg PUBLIC "-//W3C//DTD SVG 20010904//EN"
 "http://www.w3.org/TR/2001/REC-SVG-20010904/DTD/svg10.dtd">
<svg version="1.0" xmlns="http://www.w3.org/2000/svg"
 width="486.000000pt" height="339.000000pt" viewBox="0 0 486.000000 339.000000"
 preserveAspectRatio="xMidYMid meet">

<g transform="translate(0.000000,339.000000) scale(0.100000,-0.100000)"
fill="#000000" stroke="none">
<path d="M3714 3378 c-8 -13 -17 -115 -30 -351 l-7 -128 -51 -26 c-75 -38
-229 -134 -243 -151 -29 -35 43 -102 142 -132 22 -7 66 -24 99 -38 l58 -26 -7
-85 c-4 -47 -10 -130 -14 -185 l-6 -99 -57 73 -58 72 31 29 c29 27 30 31 17
52 -9 12 -25 23 -37 25 -20 3 -25 14 -33 66 -2 10 -11 24 -21 30 -16 9 -24 5
-51 -27 -28 -34 -35 -37 -57 -28 -43 16 -56 0 -41 -54 12 -46 12 -48 -18 -81
-16 -19 -30 -39 -30 -44 0 -16 34 -28 67 -23 28 5 34 1 55 -36 28 -50 56 -54
65 -11 3 17 9 30 12 30 9 0 132 -152 196 -242 35 -49 55 -68 71 -68 36 0 35
26 -3 82 l-36 52 24 15 c37 22 219 209 268 274 32 42 48 56 60 51 82 -34 320
-114 336 -112 30 4 30 45 1 132 -14 42 -26 80 -26 85 0 5 26 12 58 16 125 15
307 96 361 161 53 65 66 156 30 225 -25 49 -66 69 -144 69 l-56 0 21 28 c53
72 47 161 -15 230 l-43 47 -83 0 c-66 0 -93 -5 -124 -22 -56 -30 -115 -77
-152 -125 -39 -48 -39 -47 -12 55 20 72 20 80 6 94 -18 18 -31 9 -189 -129
l-76 -68 -104 153 c-102 150 -133 180 -154 145z m129 -210 c41 -62 87 -124
101 -137 l26 -24 23 19 c133 118 175 154 180 154 7 0 -8 -64 -32 -134 -12 -32
-18 -63 -14 -68 11 -19 188 -97 278 -123 50 -14 96 -28 104 -31 16 -5 -31 -40
-156 -113 -40 -24 -73 -49 -73 -56 0 -7 20 -75 45 -151 25 -77 45 -140 45
-141 0 -11 -52 5 -176 53 -79 30 -148 52 -154 49 -5 -3 -44 -51 -88 -108 -82
-106 -203 -227 -226 -227 -15 0 -14 59 5 283 6 64 7 126 4 137 -7 23 -90 68
-175 95 -30 10 -68 24 -84 32 -38 20 -32 24 137 114 l137 72 0 147 c0 133 8
270 16 270 1 0 36 -51 77 -112z m719 36 c55 -31 81 -100 59 -157 -6 -16 -37
-55 -68 -88 -45 -48 -62 -59 -87 -58 -47 0 -240 72 -244 90 -5 26 60 111 122
161 85 68 159 86 218 52z m199 -307 c44 -29 56 -64 41 -115 -16 -52 -46 -88
-101 -124 -52 -32 -201 -82 -277 -93 -56 -7 -70 1 -80 51 -5 27 -1 32 38 53
24 13 85 51 136 84 75 48 92 64 90 81 -2 11 -13 25 -25 31 -32 14 -29 19 20
37 62 24 118 22 158 -5z m-1250 -527 c29 0 23 -15 -13 -31 -27 -12 -34 -21
-39 -54 l-5 -40 -14 28 c-7 15 -21 27 -32 27 -16 0 -17 3 -7 21 8 16 8 28 0
46 -15 32 -14 35 7 24 22 -12 34 -4 52 29 l14 25 9 -37 c6 -28 14 -38 28 -38z"/>
<path d="M3983 2794 c-3 -8 2 -23 11 -32 15 -15 17 -15 32 0 21 21 11 48 -16
48 -11 0 -23 -7 -27 -16z"/>
<path d="M3714 2686 c-9 -24 3 -46 26 -46 17 0 21 5 18 27 -3 31 -34 44 -44
19z"/>
<path d="M3944 2535 c-8 -21 2 -45 19 -45 8 0 20 7 27 15 10 12 10 18 0 30 -7
8 -19 15 -27 15 -7 0 -16 -7 -19 -15z"/>
<path d="M1844 2335 c-50 -7 -117 -23 -150 -35 -32 -12 -95 -35 -139 -50 -44
-15 -98 -36 -120 -47 -104 -54 -284 -239 -345 -354 -18 -35 -34 -65 -34 -66
-1 -1 -35 -7 -76 -13 -100 -15 -371 -83 -483 -121 -119 -39 -190 -78 -304
-165 -102 -78 -145 -128 -174 -204 -36 -94 -26 -133 55 -218 100 -106 199
-169 301 -192 66 -15 80 -29 105 -113 39 -129 99 -189 266 -269 107 -51 154
-54 283 -14 47 14 90 26 96 26 6 0 58 -61 114 -136 114 -150 159 -186 346
-279 128 -64 212 -80 425 -80 l175 0 156 53 c164 55 263 109 396 214 164 129
268 291 338 528 21 69 41 132 46 141 4 9 34 21 66 28 120 27 279 136 325 225
29 55 29 144 -1 212 -45 102 -230 245 -356 274 -135 32 -145 38 -172 99 -50
112 -207 304 -292 356 -138 83 -270 131 -501 180 -158 33 -232 38 -346 20z
m336 -83 c41 -11 99 -25 129 -31 85 -18 249 -87 332 -138 42 -27 98 -73 126
-105 52 -57 144 -188 156 -221 8 -21 3 -21 -153 8 -122 22 -299 34 -571 40
-142 3 -304 10 -360 16 -173 19 -588 3 -679 -26 -29 -9 -25 8 14 68 80 122
282 293 369 313 17 3 72 22 122 42 49 19 124 40 165 48 96 17 252 11 350 -14z
m-295 -492 c99 -5 308 -15 465 -20 333 -12 486 -36 732 -114 130 -42 155 -54
225 -105 112 -85 153 -146 153 -231 0 -80 -33 -126 -148 -203 -71 -48 -161
-73 -176 -48 -3 4 -1 61 6 125 l11 117 -29 30 c-42 44 -71 57 -223 95 -166 43
-286 64 -366 64 -91 0 -105 6 -105 45 0 41 -38 90 -83 104 -18 6 -75 12 -127
13 -90 2 -99 1 -156 -29 -45 -23 -64 -40 -72 -61 l-10 -29 -111 -7 c-62 -4
-165 -4 -229 -1 -64 4 -205 2 -312 -4 -107 -6 -269 -15 -360 -20 -267 -15
-338 -35 -447 -128 -62 -52 -84 -108 -62 -152 8 -14 15 -29 17 -33 2 -4 -19
-18 -46 -32 -60 -30 -77 -65 -69 -137 l6 -51 -27 7 c-49 12 -111 55 -192 134
-92 90 -95 99 -51 194 31 67 68 106 176 184 88 64 115 77 245 123 159 57 408
110 810 173 53 9 383 7 555 -3z m416 -190 c33 0 69 -31 69 -60 0 -10 -16 -35
-36 -55 -35 -35 -35 -38 -29 -88 10 -68 32 -152 50 -192 29 -60 101 -82 148
-45 18 14 40 20 80 20 62 0 67 -5 67 -76 0 -43 -1 -45 -60 -83 -33 -22 -78
-42 -100 -46 -49 -8 -135 2 -171 21 -37 18 -88 79 -109 130 -25 57 -70 243
-70 287 0 29 -6 40 -32 58 -40 28 -48 38 -48 65 0 47 65 76 154 69 32 -3 72
-5 87 -5z m-275 -156 c51 -33 51 -33 58 -99 9 -86 71 -275 106 -324 67 -91
169 -131 291 -112 78 13 164 55 203 102 47 55 43 150 -8 198 -32 30 -83 36
-149 17 -79 -23 -94 -21 -113 16 -21 41 -54 177 -47 195 10 25 289 0 428 -37
39 -10 111 -28 160 -41 50 -12 96 -26 103 -32 8 -6 12 -44 12 -124 0 -182 -52
-408 -130 -563 -40 -79 -157 -227 -226 -286 -101 -86 -263 -173 -430 -231 -75
-26 -88 -27 -259 -27 -184 0 -324 18 -279 34 50 19 31 79 -20 66 -21 -5 -26
-12 -26 -37 0 -26 -3 -29 -21 -24 -36 12 -243 133 -276 162 -18 15 -91 106
-162 202 -145 195 -167 240 -200 421 -32 173 -36 286 -15 417 16 98 22 115 39
119 54 14 261 21 570 21 l340 0 51 -33z m-1051 -4 c3 -5 1 -27 -6 -47 -6 -21
-14 -83 -18 -138 l-6 -100 -100 0 c-183 1 -325 53 -325 119 0 27 48 74 116
114 62 36 90 43 219 52 55 4 103 8 107 9 4 0 10 -3 13 -9z m-372 -326 c41 -14
48 -21 58 -55 9 -30 9 -48 1 -78 -17 -54 -15 -65 14 -125 40 -82 100 -139 160
-153 48 -11 136 -6 175 11 13 6 24 -6 49 -49 17 -31 30 -62 27 -69 -6 -15
-140 -46 -201 -46 -54 0 -225 82 -277 133 -42 41 -77 110 -93 187 -9 41 -20
64 -48 91 -108 105 -19 206 135 153z m346 -40 c2 -2 9 -38 16 -80 9 -57 9 -77
0 -80 -6 -3 -63 -3 -126 -2 l-114 3 0 86 0 86 110 -5 c61 -2 112 -6 114 -8z
m44 -256 c12 -43 -111 -59 -173 -23 -61 36 -50 43 64 42 92 -1 105 -3 109 -19z"/>
<path d="M1895 550 c-15 -17 -16 -24 -7 -45 6 -14 19 -25 27 -25 55 0 77 62
29 80 -32 13 -28 13 -49 -10z"/>
<path d="M1311 491 c-21 -39 20 -82 59 -61 23 12 25 28 7 51 -21 28 -54 33
-66 10z"/>
</g>
</svg>
