<?xml version="1.0" standalone="no"?>
<!DOCTYPE svg PUBLIC "-//W3C//DTD SVG 20010904//EN"
 "http://www.w3.org/TR/2001/REC-SVG-20010904/DTD/svg10.dtd">
<svg version="1.0" xmlns="http://www.w3.org/2000/svg"
 width="964.000000pt" height="952.000000pt" viewBox="0 0 964.000000 952.000000"
 preserveAspectRatio="xMidYMid meet">

<g transform="translate(0.000000,952.000000) scale(0.100000,-0.100000)"
fill="#000000" stroke="none">
<path d="M4603 8938 c-32 -23 -133 -149 -133 -166 0 -5 -7 -15 -15 -22 -8 -7
-15 -20 -15 -29 0 -9 -5 -22 -11 -28 -7 -7 -20 -36 -30 -64 -18 -51 -18 -55
-1 -108 18 -58 42 -91 66 -91 7 0 19 -7 26 -15 7 -8 22 -15 34 -15 27 0 96
-61 96 -85 0 -9 -19 -42 -43 -73 -126 -168 -169 -288 -112 -317 11 -6 33 -22
49 -38 16 -15 34 -27 41 -27 16 0 65 -43 65 -57 0 -6 -7 -16 -15 -23 -8 -7
-15 -22 -15 -34 0 -11 -7 -30 -15 -40 -10 -13 -15 -44 -15 -92 0 -86 5 -103
36 -114 12 -5 24 -19 26 -32 5 -35 64 -36 102 -2 27 24 30 32 32 101 1 41 7
80 13 86 6 6 11 18 11 27 0 8 7 28 15 44 8 16 18 47 21 70 4 22 11 49 16 58
15 30 -13 97 -56 134 -22 19 -45 34 -52 34 -6 0 -18 7 -25 16 -11 14 -11 18 2
28 21 16 72 103 91 156 22 60 31 133 23 181 -7 41 -85 139 -111 139 -8 0 -14
4 -14 8 0 5 -17 13 -37 18 -54 13 -56 46 -6 99 21 22 56 63 78 90 21 28 42 52
46 55 3 3 13 18 22 35 14 27 14 33 -4 66 -22 43 -34 49 -103 49 -37 0 -60 -6
-83 -22z"/>
<path d="M5633 8593 c-34 -7 -71 -50 -113 -128 -6 -11 -19 -33 -30 -50 -53
-84 -90 -176 -90 -229 0 -46 4 -56 33 -83 17 -17 37 -36 42 -42 6 -6 27 -25
48 -42 41 -35 47 -63 20 -100 -26 -35 -40 -59 -64 -109 -12 -25 -28 -57 -35
-72 -19 -36 -19 -172 0 -187 13 -11 27 -51 32 -86 5 -46 46 -84 88 -85 37 0
96 36 96 60 0 10 5 22 10 25 18 11 10 76 -16 132 -26 53 -26 57 -10 83 9 16
16 35 16 43 0 9 3 17 8 19 4 2 18 26 31 53 13 28 34 60 47 73 28 29 45 102 37
160 -4 33 -16 53 -50 88 -24 25 -57 50 -73 56 -51 17 -51 65 -1 143 14 22 30
48 36 57 5 9 25 38 43 64 37 55 42 104 13 135 -19 21 -76 32 -118 22z"/>
<path d="M3625 8400 c-10 -11 -25 -20 -34 -20 -17 -1 -81 -81 -81 -102 0 -7
-7 -22 -15 -32 -8 -11 -15 -29 -15 -40 0 -12 -7 -30 -15 -40 -8 -11 -15 -34
-15 -52 0 -17 -7 -48 -16 -69 -22 -53 -15 -106 16 -122 13 -6 28 -21 32 -33 4
-11 16 -23 25 -27 10 -3 35 -19 56 -36 37 -29 50 -68 26 -82 -5 -4 -14 -17
-20 -28 -5 -12 -13 -29 -18 -37 -5 -8 -12 -22 -15 -30 -3 -8 -10 -22 -15 -30
-5 -8 -15 -31 -24 -50 -13 -32 -13 -39 0 -65 22 -44 53 -65 96 -65 43 0 62 16
95 80 13 25 33 63 46 85 82 146 86 156 86 227 0 68 0 69 -45 112 -24 24 -57
47 -72 51 -37 9 -63 33 -63 58 0 10 28 65 62 121 53 88 61 107 61 149 -1 36
-6 54 -24 73 -29 31 -88 33 -114 4z"/>
<path d="M4495 7259 c-16 -6 -86 -12 -155 -15 -141 -5 -293 -36 -398 -80 -18
-8 -46 -14 -62 -14 -16 0 -31 -4 -35 -9 -3 -5 -20 -13 -38 -16 -17 -4 -43 -13
-57 -20 -41 -22 -97 -45 -108 -45 -5 0 -38 -16 -73 -35 -35 -19 -92 -49 -126
-66 -35 -17 -65 -34 -68 -40 -4 -5 -15 -9 -26 -9 -10 0 -19 -3 -19 -7 0 -5
-23 -21 -51 -38 -73 -43 -78 -46 -144 -91 -130 -88 -160 -110 -172 -124 -22
-29 -37 5 -40 90 -2 67 -6 87 -33 135 -30 55 -90 125 -107 125 -4 0 -21 7 -38
16 -20 10 -59 16 -115 17 -83 2 -87 1 -140 -35 -69 -47 -155 -122 -245 -216
-70 -74 -167 -142 -201 -142 -11 0 -28 -7 -38 -15 -11 -8 -30 -15 -42 -15 -12
0 -35 -7 -50 -15 -16 -8 -39 -15 -51 -15 -12 0 -34 -7 -50 -15 -15 -7 -48 -23
-73 -35 -43 -20 -71 -36 -94 -53 -256 -185 -338 -290 -387 -490 -5 -21 -13
-45 -18 -55 -6 -9 -17 -51 -26 -92 -37 -168 2 -440 90 -635 33 -72 45 -104 45
-117 1 -12 25 -83 48 -140 12 -29 71 -92 186 -195 81 -74 82 -93 7 -93 -27 0
-62 -5 -78 -11 -15 -6 -48 -14 -73 -19 -50 -9 -101 -25 -143 -46 -16 -8 -37
-14 -47 -14 -10 0 -22 -5 -25 -11 -4 -5 -17 -14 -28 -20 -12 -5 -29 -13 -37
-18 -8 -5 -22 -12 -30 -15 -8 -4 -28 -15 -45 -26 -16 -11 -39 -24 -50 -30 -62
-32 -270 -179 -335 -236 -14 -13 -50 -44 -80 -71 -90 -79 -165 -162 -191 -211
-13 -26 -27 -48 -31 -50 -5 -2 -8 -9 -8 -15 -1 -7 -9 -30 -20 -52 -11 -22 -19
-47 -20 -56 0 -9 -7 -30 -15 -45 -20 -39 -20 -189 0 -228 8 -15 15 -36 15 -45
0 -9 7 -29 15 -45 8 -15 15 -36 15 -44 0 -9 16 -49 37 -90 34 -69 133 -188
222 -270 32 -28 156 -95 261 -140 19 -8 43 -19 52 -23 16 -8 32 -13 138 -39
25 -7 61 -17 80 -22 19 -6 67 -15 105 -19 39 -5 90 -13 115 -18 25 -6 70 -10
101 -11 31 0 69 -4 85 -10 16 -5 85 -14 154 -20 69 -5 148 -14 175 -19 28 -6
80 -10 116 -10 36 -1 79 -5 95 -11 16 -5 83 -15 149 -20 66 -6 164 -16 217
-23 108 -13 114 -17 192 -117 46 -60 222 -220 242 -220 6 0 14 -7 18 -15 3 -8
12 -15 20 -15 8 0 16 -3 18 -7 5 -12 119 -90 163 -113 11 -6 34 -19 50 -30 28
-19 35 -22 68 -35 6 -3 19 -9 27 -14 42 -24 79 -41 90 -41 6 0 18 -7 26 -15 9
-8 24 -15 33 -15 10 0 24 -7 31 -15 7 -8 21 -15 30 -15 10 0 31 -6 47 -14 35
-18 85 -39 143 -61 25 -10 59 -24 77 -31 17 -8 39 -14 50 -14 10 0 27 -7 37
-15 11 -8 30 -15 42 -15 12 0 35 -7 50 -15 16 -8 37 -15 47 -15 9 0 25 -4 35
-10 25 -14 102 -41 137 -47 17 -3 35 -10 42 -15 7 -5 41 -14 75 -19 35 -5 83
-13 108 -18 75 -17 634 -13 705 4 33 8 77 14 98 15 21 0 54 7 74 15 19 8 51
15 70 15 18 0 50 7 70 15 19 8 47 15 62 15 14 0 39 7 55 15 15 8 40 15 55 15
15 0 36 7 47 15 10 8 31 15 45 15 14 0 34 7 45 15 10 8 26 15 34 15 8 0 44 14
80 31 36 17 81 37 100 46 19 8 42 19 50 24 8 5 22 12 30 15 27 10 85 36 100
45 8 5 22 12 30 15 8 3 22 10 30 15 8 5 22 12 30 15 8 3 42 19 75 35 33 16 65
29 72 29 6 0 18 6 25 12 7 7 31 22 53 33 55 27 57 28 173 146 57 57 178 180
270 272 209 211 266 257 320 257 22 0 62 6 88 14 72 21 149 36 237 46 43 5 83
12 88 16 5 3 53 10 106 15 53 5 110 13 127 18 17 5 58 17 91 26 33 9 73 23 88
31 16 8 36 14 45 14 9 0 30 7 46 15 15 8 35 15 43 15 8 0 27 6 41 14 15 7 59
28 97 47 73 35 148 81 177 108 9 9 31 27 49 41 18 14 51 41 74 60 22 19 53 46
70 60 39 33 175 168 200 200 25 32 85 150 85 170 0 8 7 24 15 34 8 11 15 27
15 37 0 9 7 30 15 45 20 38 20 191 0 267 -8 32 -15 70 -15 86 0 15 -7 36 -15
47 -8 10 -15 28 -15 39 -1 11 -12 38 -25 60 -14 22 -29 50 -35 63 -17 40 -113
127 -165 150 -27 13 -63 30 -78 37 -16 8 -36 15 -45 15 -9 0 -26 7 -36 15 -11
8 -30 15 -42 15 -12 0 -27 7 -34 15 -7 8 -22 15 -34 15 -12 0 -31 7 -42 15
-10 8 -30 15 -44 15 -14 0 -34 7 -44 15 -11 8 -29 15 -41 15 -12 0 -30 7 -41
15 -10 8 -32 15 -47 15 -15 0 -44 7 -64 15 -19 8 -61 15 -92 15 -31 0 -83 7
-116 15 -33 8 -95 14 -139 15 -75 0 -254 26 -267 39 -4 3 -10 38 -14 77 l-7
71 42 49 c43 51 49 58 113 136 20 25 37 56 37 67 0 13 8 23 24 27 13 3 43 27
68 53 84 89 208 259 208 285 0 8 7 19 15 26 8 7 15 22 15 34 0 12 5 27 12 34
26 26 53 347 38 452 -24 171 -29 193 -39 203 -6 6 -11 22 -11 36 0 42 -41 147
-68 177 -37 40 -163 94 -219 94 -10 0 -27 6 -38 14 -11 7 -31 16 -45 19 -14 3
-50 15 -80 27 -72 29 -169 40 -305 33 -157 -7 -221 15 -335 115 -87 77 -236
117 -357 97 -34 -5 -68 -16 -75 -22 -6 -7 -17 -13 -23 -13 -17 0 -95 -77 -95
-93 0 -8 -7 -20 -15 -27 -8 -7 -15 -24 -15 -39 0 -31 -16 -51 -42 -51 -10 0
-83 48 -162 108 -79 59 -154 114 -166 122 -12 8 -28 20 -34 25 -52 45 -225
121 -307 135 -26 5 -55 13 -65 18 -21 11 -98 28 -184 41 -30 5 -75 14 -100 19
-99 23 -158 34 -227 40 -40 4 -78 13 -85 20 -15 15 -416 16 -463 1z m395 -178
c41 -4 85 -13 97 -19 12 -7 44 -12 71 -12 27 0 66 -7 85 -15 20 -8 63 -15 95
-15 36 0 66 -6 78 -15 11 -8 42 -14 75 -15 33 0 63 -6 75 -15 10 -8 40 -15 65
-15 25 0 54 -7 65 -15 10 -8 27 -15 37 -15 17 0 38 -9 97 -41 8 -4 35 -18 60
-30 25 -12 61 -35 81 -51 20 -15 41 -28 46 -28 5 0 16 -9 25 -19 22 -26 204
-161 216 -161 6 0 15 -6 19 -13 10 -16 88 -77 99 -77 5 0 22 -14 38 -30 16
-17 36 -30 43 -30 15 0 409 -392 453 -451 14 -18 38 -47 53 -63 54 -58 97
-113 97 -123 0 -6 7 -16 15 -23 8 -7 15 -20 15 -30 0 -10 7 -23 15 -30 8 -7
15 -20 15 -30 0 -10 7 -23 15 -30 8 -7 15 -20 15 -30 0 -10 7 -23 15 -30 8 -7
15 -23 15 -35 0 -12 6 -28 14 -34 8 -7 17 -27 20 -46 4 -19 11 -35 16 -35 6 0
10 -11 10 -24 0 -13 7 -29 15 -36 8 -7 15 -22 15 -34 0 -11 7 -34 15 -50 8
-15 15 -36 15 -45 0 -9 7 -29 15 -45 8 -15 15 -40 15 -55 0 -15 6 -35 14 -46
7 -11 16 -44 19 -74 4 -30 11 -59 17 -65 5 -5 10 -28 10 -50 0 -23 5 -59 11
-81 6 -22 15 -89 20 -150 4 -60 13 -133 20 -162 8 -36 10 -91 4 -180 -4 -70
-7 -146 -7 -168 2 -69 -20 -309 -29 -321 -5 -6 -12 -33 -16 -60 -3 -26 -12
-59 -20 -74 -7 -14 -13 -46 -13 -71 0 -73 -21 -85 -160 -93 -63 -4 -133 -11
-155 -16 -23 -5 -326 -10 -695 -11 -360 0 -698 -5 -750 -9 -52 -5 -219 -14
-370 -19 -151 -6 -309 -15 -350 -20 -41 -6 -208 -11 -370 -12 -162 0 -322 -5
-355 -11 -149 -24 -994 -34 -1595 -19 l-255 6 -6 71 c-4 39 -12 80 -18 92 -6
11 -11 40 -11 64 0 24 -7 52 -15 62 -8 11 -15 33 -15 48 0 16 -6 39 -14 51 -8
12 -16 53 -19 90 -3 38 -10 74 -16 80 -6 6 -11 41 -11 78 0 36 -6 84 -13 105
-8 22 -17 107 -20 194 -4 85 -11 194 -17 241 -7 59 -7 102 1 135 5 27 13 74
16 104 3 30 12 64 19 75 8 11 14 33 14 50 0 17 7 40 15 51 8 10 15 35 15 55 0
20 7 42 15 49 8 7 15 27 15 44 0 17 7 40 15 50 8 11 15 39 15 62 0 25 6 47 15
54 8 7 15 20 15 29 0 10 7 26 15 37 8 10 15 32 15 47 0 15 7 30 15 33 8 4 15
16 15 28 0 11 7 30 15 40 8 11 15 30 15 42 0 12 7 27 15 34 8 7 15 21 15 31 0
9 7 24 15 33 8 8 15 20 15 26 0 28 165 218 395 454 41 42 182 169 217 196 11
8 52 42 92 75 107 92 249 196 296 218 8 4 38 21 65 37 28 17 88 49 135 71 47
23 97 48 112 55 14 8 33 14 41 14 8 0 20 7 27 15 7 8 22 15 34 15 11 0 30 7
40 15 11 8 30 15 42 15 12 0 27 7 34 15 7 8 24 15 39 15 14 0 35 7 45 15 11 8
30 15 42 15 12 0 24 7 28 15 3 9 19 15 41 15 20 0 46 6 58 12 22 13 57 16 372
37 99 7 198 16 220 21 22 4 51 6 65 4 14 -3 59 -8 100 -13z m-2190 -263 c11
-13 29 -37 41 -55 19 -31 19 -34 5 -78 -9 -25 -16 -56 -16 -68 -1 -12 -12 -40
-25 -62 -14 -22 -29 -49 -34 -60 -5 -12 -16 -27 -25 -34 -9 -7 -16 -20 -16
-28 0 -13 -6 -22 -36 -56 -6 -7 -14 -22 -18 -34 -9 -29 -111 -123 -133 -123
-10 0 -27 -7 -37 -15 -11 -8 -40 -15 -65 -15 -25 -1 -57 -7 -71 -15 -14 -8
-53 -15 -90 -15 -36 -1 -83 -7 -105 -15 -22 -8 -49 -15 -59 -15 -40 0 -196
-149 -196 -187 0 -7 -3 -13 -7 -13 -13 0 -43 -60 -43 -85 0 -13 -8 -31 -17
-41 -15 -15 -18 -36 -18 -130 0 -93 3 -115 18 -131 9 -11 17 -31 17 -45 0 -14
7 -39 15 -54 8 -16 15 -37 15 -47 0 -10 7 -25 15 -33 8 -9 15 -23 15 -32 1 -9
28 -44 60 -77 64 -64 76 -101 45 -141 -8 -10 -15 -39 -15 -64 0 -25 -7 -56
-15 -70 -8 -14 -14 -46 -15 -71 0 -25 -7 -54 -15 -65 -8 -10 -15 -29 -15 -41
0 -29 -10 -53 -22 -53 -19 0 -268 258 -268 277 0 11 -7 28 -15 39 -8 10 -15
29 -15 40 0 12 -7 27 -15 34 -8 7 -15 27 -15 45 0 18 -7 38 -15 45 -8 7 -15
27 -15 45 0 18 -7 38 -15 45 -8 7 -15 27 -15 45 0 18 -7 38 -15 45 -9 7 -15
29 -15 54 0 23 -7 51 -15 62 -21 28 -21 282 0 310 8 10 15 33 15 50 0 16 7 39
15 50 8 10 15 29 15 40 0 12 7 27 15 34 8 7 15 20 15 30 0 10 7 23 15 30 8 7
15 17 15 22 0 29 224 238 256 238 7 0 14 7 18 15 3 8 16 15 29 15 14 0 30 7
37 15 7 8 22 15 34 15 11 0 30 7 40 15 11 8 32 15 46 15 14 0 35 7 46 15 10 8
33 15 49 15 17 0 39 7 49 15 11 8 27 15 37 15 9 0 19 7 23 15 3 8 15 15 26 15
12 0 28 6 35 13 7 6 35 28 62 47 26 19 77 66 113 105 69 74 160 155 188 167
29 13 82 0 102 -24z m3986 -23 c10 -8 26 -15 34 -15 8 0 31 -14 50 -30 19 -17
38 -30 43 -30 5 0 26 -13 46 -28 20 -16 43 -32 51 -35 8 -4 29 -16 45 -27 71
-46 69 -46 292 -35 133 7 155 6 177 -8 14 -10 32 -17 40 -17 18 0 100 -41 104
-52 2 -4 12 -8 22 -8 9 0 23 -7 30 -15 8 -10 30 -15 63 -15 94 0 139 -55 151
-185 4 -38 12 -75 17 -82 6 -7 11 -79 12 -171 1 -162 -9 -226 -49 -304 -8 -14
-14 -33 -14 -42 0 -9 -4 -16 -10 -16 -5 0 -10 -5 -10 -12 0 -12 -64 -112 -90
-139 -38 -40 -116 -133 -124 -148 -5 -9 -34 -42 -65 -74 -31 -32 -57 -62 -59
-67 -11 -30 -72 8 -72 44 0 12 -7 34 -15 50 -8 15 -15 36 -15 45 0 10 -7 26
-15 37 -8 10 -15 29 -15 41 0 12 -6 28 -14 35 -7 8 -17 36 -20 64 -6 41 -3 56
18 94 15 28 33 47 47 50 13 3 26 15 28 25 2 11 15 31 28 45 14 13 36 44 50 67
14 24 28 43 33 43 4 0 10 8 14 18 3 9 14 31 24 47 37 61 12 157 -59 226 -28
27 -55 49 -61 49 -5 0 -22 11 -36 25 -66 61 -146 79 -227 50 -22 -8 -56 -15
-75 -15 -20 0 -46 -7 -58 -16 -22 -15 -62 -11 -62 7 0 5 -15 9 -34 9 -18 0
-39 7 -46 15 -7 8 -19 15 -28 15 -8 0 -47 31 -86 69 -39 38 -103 100 -141 138
-111 108 -122 134 -85 210 32 66 120 103 166 68z m546 -672 c15 -3 33 -11 39
-19 6 -8 16 -14 21 -14 6 0 21 -10 34 -22 33 -32 33 -90 -1 -126 -57 -63 -85
-98 -91 -115 -6 -20 -50 -41 -65 -31 -5 3 -9 12 -9 20 0 8 -5 14 -11 14 -5 0
-15 14 -20 30 -6 17 -15 30 -20 30 -5 0 -9 7 -9 15 0 8 -5 15 -11 15 -5 0 -15
14 -20 30 -6 17 -15 30 -20 30 -5 0 -9 5 -9 10 0 6 -9 19 -20 30 -45 45 -15
88 70 100 34 5 65 12 68 15 4 3 16 3 27 0 11 -4 32 -9 47 -12z m-4955 -134
c14 -14 7 -35 -29 -79 -15 -19 -28 -40 -28 -47 0 -6 -6 -18 -12 -25 -15 -15
-73 -133 -83 -165 -3 -13 -11 -23 -16 -23 -5 0 -9 -10 -9 -23 0 -13 -7 -32
-15 -43 -8 -10 -15 -28 -15 -40 0 -11 -7 -29 -15 -40 -8 -10 -15 -31 -15 -45
0 -14 -6 -34 -14 -44 -12 -17 -18 -18 -40 -7 -15 6 -26 20 -26 31 0 10 -7 24
-15 31 -8 7 -15 27 -15 45 0 18 -7 38 -15 45 -21 17 -21 188 0 216 8 10 15 27
15 37 0 23 134 157 157 157 10 0 29 7 43 14 30 17 132 20 147 5z m5448 -1354
c22 -8 68 -15 102 -15 34 0 74 -5 90 -11 15 -6 68 -15 117 -20 49 -5 94 -13
100 -19 5 -5 19 -10 31 -10 22 0 119 -31 172 -56 17 -7 38 -14 47 -14 9 0 16
-4 16 -10 0 -5 7 -10 15 -10 8 0 32 -9 52 -20 21 -11 43 -20 50 -20 7 0 13 -4
13 -9 0 -5 12 -12 27 -16 15 -3 30 -10 33 -13 3 -4 27 -18 53 -32 50 -26 79
-57 92 -100 4 -14 12 -28 17 -31 9 -6 22 -67 39 -184 11 -72 4 -191 -11 -200
-5 -3 -11 -23 -15 -45 -4 -22 -11 -40 -16 -40 -5 0 -9 -6 -9 -13 0 -28 -214
-287 -237 -287 -9 0 -86 -62 -115 -92 -15 -15 -33 -28 -40 -28 -8 0 -28 -13
-46 -30 -18 -16 -39 -30 -46 -30 -8 0 -19 -7 -26 -15 -7 -8 -22 -15 -34 -15
-12 0 -31 -7 -42 -15 -10 -8 -29 -15 -40 -15 -12 0 -27 -7 -34 -15 -7 -8 -23
-15 -37 -15 -13 0 -26 -7 -29 -15 -4 -8 -16 -15 -28 -15 -12 0 -31 -7 -42 -15
-10 -8 -36 -15 -57 -15 -22 0 -53 -6 -70 -14 -18 -8 -59 -17 -91 -19 -32 -3
-64 -11 -69 -16 -6 -6 -22 -11 -35 -11 -13 0 -36 -6 -50 -14 -48 -24 -115 -38
-234 -47 -65 -4 -126 -13 -137 -19 -11 -5 -59 -10 -108 -10 -48 -1 -122 -5
-163 -11 -41 -5 -136 -14 -211 -19 -75 -5 -148 -14 -163 -20 -15 -5 -69 -10
-119 -11 -51 0 -117 -5 -147 -10 -30 -5 -121 -14 -203 -19 -81 -5 -156 -14
-167 -20 -10 -5 -54 -10 -97 -11 -43 0 -105 -5 -138 -10 -33 -5 -136 -13 -230
-18 -93 -5 -204 -14 -245 -20 -41 -6 -246 -16 -455 -22 -546 -15 -817 -26
-920 -38 -110 -13 -462 -13 -770 0 -677 28 -821 40 -872 67 -12 7 -36 12 -53
12 -17 0 -40 5 -50 10 -11 6 -82 15 -157 20 -76 5 -158 13 -183 19 -25 6 -74
10 -110 11 -37 0 -71 5 -76 10 -6 6 -51 13 -100 16 -49 4 -111 12 -138 20 -27
8 -69 14 -92 14 -23 0 -58 7 -77 15 -20 8 -50 15 -66 15 -16 0 -31 6 -35 15
-3 9 -18 15 -39 15 -19 0 -40 7 -47 15 -7 8 -20 15 -30 15 -24 0 -124 54 -189
104 -53 40 -171 185 -171 211 0 7 -7 18 -15 25 -8 7 -15 22 -15 33 0 11 -7 28
-16 38 -24 26 -24 262 0 288 9 10 16 27 16 39 0 12 5 22 10 22 6 0 14 10 19
23 13 34 96 123 173 184 38 30 87 72 111 93 23 22 47 40 52 40 6 0 26 13 45
30 19 16 41 29 48 30 7 0 18 4 25 10 38 31 149 110 154 110 3 0 21 11 39 25
18 14 36 25 41 25 4 1 26 9 48 20 22 11 47 19 55 20 9 0 21 5 26 10 6 6 35 13
65 17 30 3 66 12 81 19 15 8 49 14 76 14 27 0 69 7 92 15 49 17 103 19 131 5
14 -8 19 -22 19 -53 1 -23 7 -60 15 -82 15 -40 20 -160 9 -189 -4 -11 -19 -16
-43 -16 -21 0 -46 -7 -57 -15 -10 -8 -31 -15 -45 -15 -14 0 -34 -7 -45 -15
-10 -8 -29 -15 -40 -15 -12 0 -27 -7 -34 -15 -7 -8 -20 -15 -30 -15 -10 0 -23
-7 -30 -15 -7 -8 -19 -15 -27 -15 -24 0 -132 -89 -157 -129 -13 -21 -31 -64
-39 -98 -14 -54 -14 -65 -1 -114 22 -77 38 -109 76 -150 30 -32 148 -99 175
-99 6 0 24 -6 40 -14 51 -26 101 -46 116 -46 8 0 28 -7 43 -15 16 -8 43 -15
59 -15 17 0 36 -5 41 -10 6 -6 42 -13 80 -16 38 -3 94 -9 124 -15 231 -41
1357 -41 2055 0 105 6 348 16 540 21 631 17 959 30 1040 40 46 6 365 10 755
11 371 0 722 4 780 9 163 15 241 27 253 39 6 6 21 11 34 11 13 0 26 6 29 14 3
8 19 18 35 21 16 4 29 11 29 16 0 5 9 9 19 9 11 0 26 7 35 15 8 8 23 15 33 15
10 0 27 6 38 14 11 7 31 17 44 21 32 10 119 63 151 92 14 13 28 23 31 23 20 0
61 57 80 109 28 82 22 210 -13 292 -16 36 -85 99 -110 99 -8 0 -23 7 -34 15
-10 8 -30 15 -44 15 -14 0 -34 7 -44 15 -11 8 -31 15 -46 15 -14 0 -34 6 -45
14 -11 7 -47 15 -80 18 -33 3 -76 12 -96 20 l-36 16 -7 144 c-4 80 -4 157 0
172 6 25 8 26 88 26 44 -1 99 -7 121 -15z m-85 -555 c80 -11 196 -50 232 -80
20 -16 23 -26 20 -86 -3 -84 -15 -98 -126 -154 -45 -23 -88 -45 -96 -49 -62
-32 -84 -41 -99 -41 -9 0 -26 -7 -37 -15 -10 -8 -31 -15 -46 -15 -28 0 -28 1
-28 64 0 48 4 65 15 70 11 4 15 22 15 70 0 37 6 76 15 92 8 16 15 54 15 85 0
77 -5 75 120 59z m-5704 -135 c19 -15 19 -15 0 -30 -17 -13 -18 -18 -7 -38 7
-12 16 -47 21 -77 13 -81 30 -158 47 -217 17 -60 5 -100 -25 -87 -9 3 -35 13
-57 21 -22 8 -44 19 -50 24 -5 5 -18 9 -30 9 -11 0 -29 7 -39 15 -11 8 -27 15
-37 15 -9 0 -30 7 -45 15 -16 8 -36 15 -44 15 -8 0 -24 7 -34 15 -11 8 -28 15
-37 15 -24 0 -89 82 -89 112 0 39 37 72 145 128 54 28 104 55 110 59 28 24
143 27 171 6z m4841 -1182 c3 -7 -63 -80 -146 -162 -83 -82 -151 -154 -151
-159 0 -13 -141 -141 -172 -156 -7 -3 -26 -15 -43 -26 -29 -19 -34 -22 -65
-34 -8 -3 -22 -10 -30 -14 -8 -5 -31 -16 -50 -24 -19 -8 -64 -29 -100 -46 -36
-18 -73 -32 -83 -32 -10 0 -20 -7 -23 -15 -4 -8 -17 -15 -30 -15 -14 0 -27 -7
-30 -15 -4 -8 -16 -15 -28 -15 -11 0 -34 -7 -50 -15 -15 -8 -37 -15 -47 -15
-11 0 -22 -7 -25 -15 -4 -8 -18 -15 -33 -15 -15 0 -36 -7 -47 -15 -10 -8 -30
-15 -44 -15 -14 0 -38 -7 -54 -15 -15 -8 -41 -15 -57 -15 -16 0 -46 -6 -66
-14 -21 -8 -58 -17 -82 -21 -24 -3 -49 -9 -55 -13 -17 -11 -129 -30 -266 -47
-69 -8 -135 -17 -148 -21 -19 -5 -250 10 -452 30 -88 9 -255 51 -297 74 -12 6
-30 12 -40 12 -10 0 -27 7 -37 15 -11 8 -32 15 -47 15 -14 0 -32 7 -39 15 -7
8 -22 15 -34 15 -11 1 -32 7 -46 15 -14 8 -35 14 -47 15 -13 0 -23 4 -23 10 0
5 -18 13 -40 16 -22 4 -45 13 -51 20 -6 8 -19 14 -29 14 -10 0 -31 7 -46 15
-16 8 -39 15 -51 15 -13 0 -23 4 -23 9 0 5 -12 12 -27 15 -16 4 -43 13 -60 22
-18 8 -48 21 -68 30 -76 32 -110 49 -113 57 -2 4 -9 7 -15 7 -14 0 -114 68
-151 102 -17 16 -34 28 -39 28 -9 0 -74 49 -112 83 -11 10 -39 33 -62 50 -42
30 -50 41 -35 50 4 3 266 8 582 11 316 3 609 10 650 16 41 5 176 10 300 11
124 0 270 5 325 10 55 5 202 13 327 18 125 5 244 15 265 20 21 6 90 11 153 11
63 1 147 5 185 11 39 5 144 13 235 19 91 5 181 14 200 20 19 5 78 10 130 11
52 0 120 5 150 10 30 5 119 14 198 19 78 5 150 14 160 19 21 13 44 10 49 -6z"/>
<path d="M3837 6252 c-22 -23 -27 -37 -27 -79 0 -47 3 -54 37 -82 43 -36 60
-38 102 -14 40 24 55 54 54 112 -1 68 -23 91 -88 91 -43 0 -56 -5 -78 -28z"/>
<path d="M5573 6231 c-29 -24 -32 -92 -5 -118 27 -28 70 -53 88 -53 18 0 72
36 95 64 14 17 14 23 1 50 -29 60 -51 76 -106 76 -35 -1 -58 -7 -73 -19z"/>
<path d="M4643 5266 c-57 -60 -2 -176 83 -176 75 0 113 51 92 121 -22 74 -127
106 -175 55z"/>
</g>
</svg>
