<svg width="current" height="current" viewBox="0 0 185 185" fill="#141852" xmlns="http://www.w3.org/2000/svg">
  <rect width="185" height="185" fill="#141852" />
  <path
    d="M33.0376 88.7021H31.4175V70.4297H33.0376V88.7021ZM23.3374 71.8447C24.2397 71.8447 25.043 72.1045 25.7471 72.624C26.4512 73.1436 27.0015 73.8853 27.3979 74.8491C27.7944 75.813 27.9927 76.9307 27.9927 78.2021C27.9927 79.4736 27.7944 80.5879 27.3979 81.5449C27.0015 82.502 26.4512 83.2402 25.7471 83.7598C25.043 84.2793 24.2397 84.5391 23.3374 84.5391C22.4351 84.5391 21.6318 84.2793 20.9277 83.7598C20.2236 83.2402 19.6733 82.502 19.2769 81.5449C18.8804 80.5879 18.6821 79.4736 18.6821 78.2021C18.6821 76.9307 18.8804 75.813 19.2769 74.8491C19.6733 73.8853 20.2236 73.1436 20.9277 72.624C21.6318 72.1045 22.4351 71.8447 23.3374 71.8447ZM23.3374 73.2803C22.7358 73.2803 22.1992 73.4854 21.7275 73.8955C21.2559 74.3057 20.8901 74.8833 20.6304 75.6284C20.3706 76.3735 20.2407 77.2314 20.2407 78.2021C20.2407 79.1797 20.3706 80.041 20.6304 80.7861C20.8901 81.5244 21.2559 82.0952 21.7275 82.4985C22.1992 82.9019 22.7358 83.1035 23.3374 83.1035C23.9458 83.1035 24.4824 82.9019 24.9473 82.4985C25.4189 82.0952 25.7847 81.5244 26.0444 80.7861C26.3042 80.041 26.4341 79.1797 26.4341 78.2021C26.4341 77.2246 26.3042 76.3667 26.0444 75.6284C25.7847 74.8833 25.4189 74.3057 24.9473 73.8955C24.4824 73.4854 23.9458 73.2803 23.3374 73.2803ZM45.6499 84.0879H37.2212V72.2344H45.6499V84.0879ZM38.8003 82.7754H44.0708V73.5264H38.8003V82.7754ZM51.187 88.7021H49.5669V70.4297H51.187V88.7021ZM60.5386 76.0283C60.5386 77.2861 60.2993 78.5269 59.8208 79.7505C59.3423 80.9741 58.6997 82.061 57.8931 83.0112C57.0933 83.9614 56.2183 84.6758 55.2681 85.1543L54.3042 83.8828C55.1724 83.4658 55.979 82.8369 56.7241 81.9961C57.4761 81.1484 58.0776 80.1982 58.5288 79.1455C58.98 78.0928 59.2056 77.0537 59.2056 76.0283V73.0137H60.5386V76.0283ZM60.8257 76.0283C60.8257 77.0332 61.0513 78.0347 61.5024 79.0327C61.9536 80.0239 62.5552 80.9092 63.3071 81.6885C64.0591 82.4678 64.8794 83.0488 65.7681 83.4316L64.8657 84.7031C63.8745 84.252 62.9722 83.582 62.1587 82.6934C61.3521 81.8047 60.7095 80.7827 60.231 79.6274C59.7593 78.4653 59.5269 77.2656 59.5337 76.0283V73.0137H60.8257V76.0283ZM65.1733 73.6494H54.8989V72.3164H65.1733V73.6494ZM69.3364 88.6611H67.7163V70.4297H69.3364V88.6611ZM86.8091 81.9961H85.2095V79.166H86.8091V81.9961ZM81.5386 72.4805H90.562V70.7373H92.1616V76.7256H79.939V70.7373H81.5386V72.4805ZM90.562 75.4746V73.7109H81.5386V75.4746H90.562ZM94.3354 79.5762H77.7241V78.2432H94.3354V79.5762ZM92.2026 85.4004H81.3745V87.6768H79.7749V84.2109H90.6235V82.5908H79.7339V81.3604H92.2026V85.4004ZM92.7563 88.4561H79.7749V87.1846H92.7563V88.4561ZM110.967 88.7021H109.368V70.4297H110.967V88.7021ZM109.778 78.7969H105.82V77.4434H109.778V78.7969ZM97.9653 82.9395C99.7427 82.9395 101.247 82.9019 102.477 82.8267C103.714 82.7446 104.972 82.584 106.25 82.3447L106.374 83.6982C105.075 83.9307 103.79 84.0913 102.518 84.1802C101.253 84.2622 99.7358 84.3066 97.9653 84.3135H96.5708V82.9395H97.9653ZM104.712 78.5098H98.1704V83.3701H96.5708V77.1768H103.154V73.4648H96.5093V72.1318H104.712V78.5098ZM123.108 85.2979H121.529V80.7246H123.108V85.2979ZM122.329 71.6191C123.614 71.626 124.762 71.8276 125.774 72.2241C126.786 72.6138 127.575 73.1709 128.143 73.8955C128.71 74.6201 128.994 75.4541 128.994 76.3975C128.994 77.3545 128.71 78.1919 128.143 78.9097C127.575 79.6274 126.786 80.1846 125.774 80.5811C124.762 80.9775 123.614 81.1758 122.329 81.1758C121.043 81.1758 119.898 80.9775 118.894 80.5811C117.889 80.1846 117.099 79.6274 116.525 78.9097C115.951 78.1851 115.664 77.3477 115.664 76.3975C115.664 75.4541 115.951 74.6201 116.525 73.8955C117.099 73.1709 117.889 72.6138 118.894 72.2241C119.898 71.8276 121.043 71.626 122.329 71.6191ZM122.329 72.9521C121.351 72.9521 120.473 73.0957 119.693 73.3828C118.921 73.6699 118.316 74.0767 117.878 74.603C117.441 75.1226 117.222 75.7207 117.222 76.3975C117.222 77.0879 117.441 77.6963 117.878 78.2227C118.316 78.7422 118.921 79.1489 119.693 79.4429C120.466 79.73 121.344 79.877 122.329 79.8838C123.313 79.877 124.191 79.73 124.964 79.4429C125.736 79.1489 126.341 78.7422 126.779 78.2227C127.216 77.6963 127.435 77.0879 127.435 76.3975C127.435 75.7207 127.216 75.1226 126.779 74.603C126.341 74.0767 125.733 73.6699 124.954 73.3828C124.181 73.0957 123.306 72.9521 122.329 72.9521ZM130.716 86.3232H114.023V84.9697H130.716V86.3232ZM147.246 88.6611H145.625V70.4297H147.246V88.6611ZM141.852 72.4189C141.845 74.2236 141.544 75.9121 140.95 77.4844C140.362 79.0566 139.432 80.5059 138.161 81.832C136.889 83.1514 135.262 84.2861 133.28 85.2363L132.398 83.9238C134.155 83.0898 135.614 82.1055 136.776 80.9707C137.945 79.8359 138.813 78.5781 139.381 77.1973C139.955 75.8096 140.246 74.2988 140.252 72.665V72.4189H141.852ZM140.909 73.7314H133.239V72.4189H140.909V73.7314ZM161.293 78.8789H157.787V77.5459H161.293V78.8789ZM165.949 88.6611H164.39V70.4297H165.949V88.6611ZM162.278 87.7383H160.74V70.8193H162.278V87.7383ZM154.464 71.9678C155.25 71.9678 155.938 72.2275 156.525 72.7471C157.12 73.2666 157.582 74.0049 157.91 74.9619C158.238 75.9121 158.402 77.0264 158.402 78.3047C158.402 79.583 158.238 80.7007 157.91 81.6577C157.582 82.6079 157.12 83.3428 156.525 83.8623C155.938 84.3818 155.25 84.6416 154.464 84.6416C153.678 84.6416 152.991 84.3818 152.403 83.8623C151.822 83.3428 151.368 82.6079 151.04 81.6577C150.711 80.7007 150.547 79.583 150.547 78.3047C150.547 77.0264 150.711 75.9121 151.04 74.9619C151.368 74.0049 151.822 73.2666 152.403 72.7471C152.991 72.2275 153.678 71.9678 154.464 71.9678ZM154.464 73.4854C153.972 73.4854 153.545 73.6802 153.183 74.0698C152.82 74.4595 152.54 75.02 152.342 75.7515C152.15 76.4761 152.058 77.3271 152.065 78.3047C152.058 79.2822 152.15 80.1333 152.342 80.8579C152.54 81.5757 152.82 82.1328 153.183 82.5293C153.552 82.9189 153.979 83.1104 154.464 83.1035C154.957 83.1104 155.387 82.9189 155.756 82.5293C156.125 82.1328 156.406 81.5757 156.597 80.8579C156.789 80.1333 156.884 79.2822 156.884 78.3047C156.884 77.3271 156.789 76.4761 156.597 75.7515C156.406 75.02 156.125 74.4595 155.756 74.0698C155.387 73.6802 154.957 73.4854 154.464 73.4854ZM53.8223 104.884H52.2432V95.4297H53.8223V104.884ZM53.8428 110.175H43.6094V112.718H42.0303V108.924H52.2432V107.099H41.9893V105.807H53.8428V110.175ZM54.499 113.456H42.0303V112.144H54.499V113.456ZM44.9629 97.3574C44.9561 98.4717 44.7305 99.521 44.2861 100.505C43.8486 101.483 43.2368 102.337 42.4507 103.069C41.6646 103.793 40.7656 104.337 39.7539 104.699L38.9131 103.428C39.8223 103.113 40.6323 102.648 41.3433 102.033C42.061 101.418 42.6182 100.707 43.0146 99.9004C43.4111 99.0869 43.6094 98.2393 43.6094 97.3574V95.9629H44.9629V97.3574ZM45.25 97.3574C45.2432 98.1982 45.438 99.0049 45.8345 99.7773C46.2378 100.543 46.7915 101.216 47.4956 101.797C48.1997 102.372 49.0029 102.806 49.9053 103.1L49.1055 104.351C48.0869 104.009 47.1812 103.493 46.3882 102.802C45.6021 102.112 44.9902 101.302 44.5527 100.372C44.1152 99.4355 43.8965 98.4307 43.8965 97.3574V95.9629H45.25V97.3574ZM72.5664 113.661H71.0078V95.4297H72.5664V113.661ZM71.6025 104.146H68.0342V102.792H71.6025V104.146ZM68.5264 112.718H66.9883V95.8398H68.5264V112.718ZM65.6348 99.0801H57.124V97.7471H65.6348V99.0801ZM56.7344 107.775C58.3818 107.775 60.0225 107.748 61.6562 107.693C63.2969 107.632 64.7461 107.516 66.0039 107.345L66.0859 108.534C64.7939 108.773 63.3276 108.938 61.687 109.026C60.0532 109.115 58.4707 109.156 56.9395 109.149L56.7344 107.775ZM60.2207 108.165H58.7236V98.6084H60.2207V108.165ZM64.0557 108.165H62.5586V98.6084H64.0557V108.165ZM90.5723 106.75H89.0342V95.4502H90.5723V106.75ZM89.4854 101.808H85.958V100.475H89.4854V101.808ZM86.6553 106.463H85.1172V95.7373H86.6553V106.463ZM84.3379 98.8545H74.9863V97.5215H84.3379V98.8545ZM79.6826 99.7773C80.4482 99.7773 81.1284 99.9038 81.7231 100.157C82.3179 100.41 82.7793 100.772 83.1074 101.244C83.4355 101.715 83.5996 102.266 83.5996 102.895C83.5996 103.51 83.4355 104.053 83.1074 104.525C82.7793 104.997 82.3145 105.362 81.7129 105.622C81.1182 105.882 80.4414 106.012 79.6826 106.012C78.9238 106.012 78.2471 105.882 77.6523 105.622C77.0645 105.362 76.6064 104.997 76.2783 104.525C75.9502 104.053 75.7861 103.51 75.7861 102.895C75.7861 102.266 75.9502 101.715 76.2783 101.244C76.6064 100.772 77.0645 100.41 77.6523 100.157C78.2402 99.9038 78.917 99.7773 79.6826 99.7773ZM79.6826 100.987C79.1973 100.987 78.7666 101.062 78.3906 101.213C78.0215 101.363 77.7344 101.585 77.5293 101.879C77.3242 102.167 77.2217 102.505 77.2217 102.895C77.2217 103.271 77.3276 103.602 77.5396 103.889C77.7515 104.169 78.0386 104.392 78.4009 104.556C78.77 104.72 79.1973 104.802 79.6826 104.802C80.168 104.802 80.5952 104.72 80.9644 104.556C81.3403 104.392 81.6309 104.169 81.8359 103.889C82.041 103.602 82.1436 103.271 82.1436 102.895C82.1436 102.505 82.041 102.167 81.8359 101.879C81.6309 101.585 81.3403 101.363 80.9644 101.213C80.5952 101.062 80.168 100.987 79.6826 100.987ZM80.4824 98.3008H78.8828V95.5117H80.4824V98.3008ZM81.2412 107.919C81.2344 108.678 81.0601 109.423 80.7183 110.154C80.3833 110.879 79.8979 111.532 79.2622 112.113C78.6333 112.694 77.8916 113.142 77.0371 113.456L76.2578 112.226C76.9961 111.973 77.6455 111.614 78.2061 111.149C78.7666 110.677 79.1973 110.161 79.498 109.601C79.8057 109.04 79.9629 108.479 79.9697 107.919V107.263H81.2412V107.919ZM81.5488 107.919C81.542 108.521 81.6616 109.108 81.9077 109.683C82.1606 110.257 82.5332 110.783 83.0254 111.262C83.5176 111.733 84.1191 112.103 84.8301 112.369L84.1328 113.6C83.292 113.285 82.5845 112.831 82.0103 112.236C81.4429 111.641 81.0156 110.971 80.7285 110.226C80.4482 109.481 80.3115 108.712 80.3184 107.919V107.263H81.5488V107.919ZM87.9473 107.919C87.9404 108.623 87.7935 109.351 87.5063 110.103C87.2261 110.848 86.7988 111.535 86.2246 112.164C85.6504 112.793 84.9531 113.271 84.1328 113.6L83.4355 112.369C84.126 112.075 84.7173 111.679 85.2095 111.18C85.7085 110.674 86.0845 110.134 86.3374 109.56C86.5972 108.985 86.7305 108.438 86.7373 107.919V107.263H87.9473V107.919ZM88.3164 107.919C88.3096 108.514 88.4531 109.098 88.7471 109.672C89.0479 110.24 89.4785 110.749 90.0391 111.2C90.6064 111.651 91.2695 111.993 92.0283 112.226L91.2695 113.456C90.3945 113.155 89.6426 112.721 89.0137 112.154C88.3848 111.586 87.9028 110.94 87.5679 110.216C87.2329 109.484 87.0654 108.719 87.0654 107.919V107.263H88.3164V107.919ZM96.9502 108.514H106.056V106.381H107.676V113.415H95.3506V106.381H96.9502V108.514ZM106.056 112.123V109.785H96.9502V112.123H106.056ZM109.85 105.089H93.2383V103.756H109.85V105.089ZM102.118 96.4961C102.118 97.501 101.773 98.4238 101.083 99.2646C100.392 100.099 99.4863 100.792 98.3652 101.346C97.2441 101.9 96.0547 102.272 94.7969 102.464L94.1816 101.172C95.2822 101.021 96.335 100.721 97.3398 100.27C98.3516 99.8184 99.1685 99.2646 99.7905 98.6084C100.413 97.9453 100.724 97.2412 100.724 96.4961V95.6348H102.118V96.4961ZM102.385 96.4961C102.385 97.2139 102.699 97.9077 103.328 98.5776C103.957 99.2407 104.774 99.8047 105.779 100.27C106.784 100.734 107.826 101.035 108.906 101.172L108.312 102.464C107.047 102.272 105.854 101.896 104.733 101.336C103.619 100.775 102.716 100.078 102.026 99.2441C101.335 98.4033 100.99 97.4873 100.99 96.4961V95.6348H102.385V96.4961ZM126.42 113.661H124.82V95.4297H126.42V113.661ZM114.156 108.514H112.577V97.2344H114.156V108.514ZM114.054 107.57C115.571 107.563 117.051 107.495 118.494 107.365C119.943 107.229 121.402 107.003 122.872 106.688L123.098 108.062C121.546 108.384 120.035 108.616 118.565 108.76C117.103 108.896 115.599 108.965 114.054 108.965H112.577V107.57H114.054ZM143.646 113.702H142.047V95.4297H143.646V113.702ZM146.702 104.002H143.277V102.648H146.702V104.002ZM131.772 107.775C133.563 107.769 135.098 107.721 136.376 107.632C137.655 107.536 138.957 107.365 140.283 107.119L140.488 108.514C139.135 108.76 137.809 108.924 136.51 109.006C135.218 109.088 133.639 109.129 131.772 109.129H130.337V107.775H131.772ZM138.848 98.5469H131.937V108.391H130.337V97.2139H138.848V98.5469Z"
    fill="white" />
</svg>