<svg width="25" height="24" viewBox="0 0 25 24" fill="none" xmlns="http://www.w3.org/2000/svg">
<path d="M2.58331 12L1.41201 11.063L0.662376 12L1.41201 12.9371L2.58331 12ZM23.4166 13.5C24.2451 13.5 24.9166 12.8285 24.9166 12C24.9166 11.1716 24.2451 10.5 23.4166 10.5V13.5ZM10.9166 1.58337L9.74534 0.646331L1.41201 11.063L2.58331 12L3.75462 12.9371L12.0879 2.52042L10.9166 1.58337ZM2.58331 12L1.41201 12.9371L9.74534 23.3538L10.9166 22.4167L12.0879 21.4797L3.75462 11.063L2.58331 12ZM2.58331 12V13.5H23.4166V12V10.5H2.58331V12Z" fill="white"/>
</svg>
