<svg width="55" height="17" viewBox="0 0 55 17" fill="none" xmlns="http://www.w3.org/2000/svg">
<path d="M10.812 11.86C10.812 12.6733 10.612 13.4133 10.212 14.08C9.81199 14.7333 9.21199 15.2533 8.41199 15.64C7.61199 16.0133 6.60533 16.2 5.39199 16.2C4.83199 16.2 4.31199 16.1667 3.83199 16.1C3.35199 16.0333 2.89199 15.94 2.45199 15.82C2.02533 15.6867 1.60533 15.52 1.19199 15.32V12.22C1.91199 12.5533 2.64533 12.8333 3.39199 13.06C4.15199 13.2867 4.87866 13.4 5.57199 13.4C6.01199 13.4 6.36533 13.3467 6.63199 13.24C6.91199 13.12 7.11199 12.9667 7.23199 12.78C7.36533 12.58 7.43199 12.3533 7.43199 12.1C7.43199 11.7933 7.32533 11.5333 7.11199 11.32C6.91199 11.0933 6.61199 10.88 6.21199 10.68C5.81199 10.4667 5.32533 10.2267 4.75199 9.96C4.32533 9.77333 3.90533 9.56 3.49199 9.32C3.09199 9.06667 2.72533 8.78 2.39199 8.46C2.07199 8.12667 1.81199 7.73333 1.61199 7.28C1.42533 6.81333 1.33199 6.26667 1.33199 5.64C1.33199 4.74667 1.53866 4 1.95199 3.4C2.37866 2.78667 2.97199 2.32 3.73199 2C4.49199 1.68 5.38533 1.52 6.41199 1.52C7.25199 1.52 8.02533 1.61333 8.73199 1.8C9.43866 1.98667 10.1253 2.22667 10.792 2.52L9.71199 5.18C9.07199 4.9 8.47199 4.68667 7.91199 4.54C7.36533 4.38 6.83199 4.3 6.31199 4.3C5.95199 4.3 5.65199 4.35333 5.41199 4.46C5.17199 4.55333 4.99199 4.69333 4.87199 4.88C4.75199 5.05333 4.69199 5.26 4.69199 5.5C4.69199 5.78 4.78533 6.02667 4.97199 6.24C5.15866 6.44 5.45199 6.64667 5.85199 6.86C6.25199 7.07333 6.77866 7.33333 7.43199 7.64C8.13866 7.96 8.74533 8.30667 9.25199 8.68C9.75866 9.05333 10.1453 9.49333 10.412 10C10.6787 10.4933 10.812 11.1133 10.812 11.86ZM25.1815 16H21.7815V10H16.6615V16H13.2415V1.72H16.6615V7.18H21.7815V1.72H25.1815V16ZM41.6745 8.84C41.6745 9.94667 41.5412 10.9533 41.2745 11.86C41.0078 12.7533 40.5945 13.5267 40.0345 14.18C39.4745 14.8333 38.7612 15.3333 37.8945 15.68C37.0278 16.0267 36.0012 16.2 34.8145 16.2C33.6412 16.2 32.6212 16.0267 31.7545 15.68C30.8878 15.32 30.1745 14.82 29.6145 14.18C29.0545 13.5267 28.6345 12.7467 28.3545 11.84C28.0878 10.9333 27.9545 9.92667 27.9545 8.82C27.9545 7.34 28.1945 6.05333 28.6745 4.96C29.1678 3.86667 29.9212 3.02 30.9345 2.42C31.9612 1.80667 33.2612 1.5 34.8345 1.5C36.4212 1.5 37.7145 1.80667 38.7145 2.42C39.7278 3.02 40.4745 3.87333 40.9545 4.98C41.4345 6.07333 41.6745 7.36 41.6745 8.84ZM31.5345 8.84C31.5345 9.77333 31.6478 10.58 31.8745 11.26C32.1012 11.9267 32.4545 12.44 32.9345 12.8C33.4278 13.16 34.0545 13.34 34.8145 13.34C35.6012 13.34 36.2345 13.16 36.7145 12.8C37.1945 12.44 37.5412 11.9267 37.7545 11.26C37.9812 10.58 38.0945 9.77333 38.0945 8.84C38.0945 7.42667 37.8412 6.32 37.3345 5.52C36.8412 4.72 36.0078 4.32 34.8345 4.32C34.0612 4.32 33.4278 4.50667 32.9345 4.88C32.4545 5.24 32.1012 5.76 31.8745 6.44C31.6478 7.10667 31.5345 7.90667 31.5345 8.84ZM49.1925 1.72C51.0191 1.72 52.3658 2.12 53.2325 2.92C54.1125 3.70667 54.5525 4.80667 54.5525 6.22C54.5525 6.86 54.4591 7.47333 54.2725 8.06C54.0858 8.63333 53.7725 9.14667 53.3325 9.6C52.9058 10.0533 52.3391 10.4133 51.6325 10.68C50.9391 10.9467 50.0791 11.08 49.0525 11.08H47.8525V16H44.4525V1.72H49.1925ZM49.0725 4.5H47.8525V8.3H48.7525C49.2191 8.3 49.6258 8.23333 49.9725 8.1C50.3325 7.96667 50.6125 7.75333 50.8125 7.46C51.0125 7.16667 51.1125 6.78667 51.1125 6.32C51.1125 5.73333 50.9458 5.28667 50.6125 4.98C50.2791 4.66 49.7658 4.5 49.0725 4.5Z" fill="white"/>
</svg>
