<svg xmlns="http://www.w3.org/2000/svg" viewBox="0 0 353.54 44"><defs><style>.cls-1{fill:#fff;}</style></defs><g id="레이어_2" data-name="레이어 2"><g id="레이어_1-2" data-name="레이어 1"><path class="cls-1" d="M68.63,12.2h7.28l1.87,13.49L79,35.08h.16c.55-3.15,1.15-6.33,1.75-9.39l3-13.49h6L93,25.69c.6,3,1.11,6.2,1.71,9.39h.2c.36-3.19.75-6.33,1.11-9.39L97.91,12.2h6.76L99.54,41.8h-9L87.93,28.91c-.48-2.27-.88-4.65-1.16-6.88h-.2c-.35,2.23-.71,4.61-1.15,6.88L82.84,41.8H74Z"/><path class="cls-1" d="M107.34,26.84c0-9.71,5.49-15.19,13.57-15.19s13.56,5.52,13.56,15.19S129,42.35,120.91,42.35,107.34,36.55,107.34,26.84Zm19.89,0c0-5.73-2.43-9.11-6.32-9.11s-6.29,3.38-6.29,9.11,2.39,9.39,6.29,9.39S127.23,32.61,127.23,26.84Z"/><path class="cls-1" d="M138.61,26.84c0-9.71,5.49-15.19,13.56-15.19s13.57,5.52,13.57,15.19-5.49,15.51-13.57,15.51S138.61,36.55,138.61,26.84Zm19.89,0c0-5.73-2.43-9.11-6.33-9.11s-6.28,3.38-6.28,9.11,2.39,9.39,6.28,9.39S158.5,32.61,158.5,26.84Z"/><path class="cls-1" d="M168.37,12.2h7.28l1.86,13.49,1.2,9.39h.16c.55-3.15,1.15-6.33,1.75-9.39l3-13.49h6l3.1,13.49c.6,3,1.11,6.2,1.71,9.39h.2c.36-3.19.76-6.33,1.11-9.39l1.91-13.49h6.77l-5.14,29.6h-9l-2.66-12.89c-.48-2.27-.88-4.65-1.16-6.88h-.19c-.36,2.23-.72,4.61-1.16,6.88L182.57,41.8h-8.79Z"/><path class="cls-1" d="M222.39,35h-8.75l-1.71,6.8h-7.24l9.19-29.6h8.51l9.19,29.6H224.1ZM221,29.51,220.4,27c-.8-2.94-1.55-6.48-2.35-9.51h-.16c-.71,3.11-1.51,6.57-2.26,9.51L215,29.51Z"/><path class="cls-1" d="M241.92,38.1l4-4.89a12,12,0,0,0,7.2,3c2.62,0,3.86-1,3.86-2.59s-1.63-2.26-4.18-3.34L249,28.71c-3.1-1.23-6-3.82-6-8.11,0-5,4.46-9,10.74-9a13.77,13.77,0,0,1,9.63,3.89L259.86,20a9.65,9.65,0,0,0-6.09-2.27c-2.18,0-3.54.88-3.54,2.47s1.87,2.27,4.5,3.3l3.7,1.47c3.66,1.47,5.85,3.94,5.85,8.12,0,4.93-4.14,9.26-11.3,9.26A16.57,16.57,0,0,1,241.92,38.1Z"/><path class="cls-1" d="M269.21,12.2h7.12V23.46h9.75V12.2h7V41.8h-7V29.63h-9.75V41.8h-7.12Z"/><path class="cls-1" d="M298.65,26.84c0-9.71,5.49-15.19,13.56-15.19s13.57,5.52,13.57,15.19-5.49,15.51-13.57,15.51S298.65,36.55,298.65,26.84Zm19.89,0c0-5.73-2.43-9.11-6.33-9.11s-6.28,3.38-6.28,9.11,2.38,9.39,6.28,9.39S318.54,32.61,318.54,26.84Z"/><path class="cls-1" d="M331.27,12.2h10.38c6.52,0,11.89,2.31,11.89,9.63,0,7-5.45,10.14-11.69,10.14h-3.46V41.8h-7.12Zm10.22,14.16c3.46,0,5.13-1.63,5.13-4.53s-1.91-4-5.33-4h-2.9v8.55Z"/><path class="cls-1" d="M45.43,34.71,50,10a1.82,1.82,0,0,0,0-.33,1.57,1.57,0,0,0-.33-1,1,1,0,0,0-.8-.4H12.43L10.81,1A1.37,1.37,0,0,0,10.4.27,1,1,0,0,0,9.72,0H1.14A1,1,0,0,0,.33.4a1.57,1.57,0,0,0-.33,1,1.56,1.56,0,0,0,.33,1,1,1,0,0,0,.81.4H8.86l7,32a1.46,1.46,0,0,0,.24.52,1.21,1.21,0,0,0,.4.35,6.31,6.31,0,0,0-.64,2.86,6.15,6.15,0,0,0,1.33,3.89,4,4,0,0,0,6.43,0A6.15,6.15,0,0,0,25,38.5a6.38,6.38,0,0,0-.63-2.75H37a6.52,6.52,0,0,0-.63,2.75,6.1,6.1,0,0,0,1.34,3.89,4,4,0,0,0,6.42,0,6.15,6.15,0,0,0,1.33-3.89,6.32,6.32,0,0,0-.68-2.87,1.25,1.25,0,0,0,.43-.37A1.53,1.53,0,0,0,45.43,34.71ZM40.76,11h6.66l-1,5.5H40.26ZM13,11h7.53l.5,5.5H14.24Zm3,13.75-1.21-5.5h6.46l.51,5.5Zm.61,2.75h5.4l.5,5.5H17.91Zm3.76,13.75a2,2,0,0,1-1.26-.46,2.78,2.78,0,0,1-.83-1.24A3.17,3.17,0,0,1,18.22,38a2.84,2.84,0,0,1,.62-1.4A2.19,2.19,0,0,1,20,35.8a1.92,1.92,0,0,1,1.31.16,2.42,2.42,0,0,1,1,1,3.19,3.19,0,0,1,.39,1.53,3,3,0,0,1-.67,1.94A2.09,2.09,0,0,1,20.44,41.25ZM29.53,33H24.86l-.5-5.5h5.17Zm0-8.25H24.11l-.51-5.5h5.93Zm0-8.25H23.35l-.5-5.5h6.68ZM36.47,33H31.8V27.5H37Zm.76-8.25H31.8v-5.5h5.93ZM38,16.5H31.8V11h6.68Zm2.9,24.75a2,2,0,0,1-1.26-.46,2.72,2.72,0,0,1-.84-1.24A3.28,3.28,0,0,1,38.66,38a2.93,2.93,0,0,1,.62-1.4,2.19,2.19,0,0,1,1.16-.76,2,2,0,0,1,1.32.16,2.48,2.48,0,0,1,1,1,3.18,3.18,0,0,1,.38,1.53,3,3,0,0,1-.67,1.94A2.07,2.07,0,0,1,40.89,41.25ZM43.39,33H38.75l.5-5.5H44.4Zm-3.88-8.25.51-5.5h5.9l-1,5.5Z"/></g></g></svg>