<svg width="51" height="44" viewBox="0 0 51 44" fill="none" xmlns="http://www.w3.org/2000/svg">
<path d="M46.2748 34.705L50.8179 9.95501C50.8288 9.8454 50.8288 9.73461 50.8179 9.62501C50.8179 9.26033 50.6982 8.9106 50.4852 8.65273C50.2722 8.39487 49.9833 8.25001 49.6821 8.25001H13.2692L11.6564 0.976256C11.5856 0.69321 11.4412 0.445361 11.2448 0.269497C11.0484 0.093633 10.8104 -0.000872914 10.5661 6.07642e-06H1.97964C1.67842 6.07642e-06 1.38953 0.144872 1.17653 0.402734C0.963533 0.660597 0.843872 1.01033 0.843872 1.37501C0.843872 1.73968 0.963533 2.08942 1.17653 2.34728C1.38953 2.60514 1.67842 2.75001 1.97964 2.75001H9.7029L16.7447 34.7738C16.7922 34.9655 16.8738 35.1424 16.9836 35.292C17.0935 35.4416 17.229 35.5604 17.3807 35.64C16.9567 36.505 16.7367 37.4942 16.7447 38.5C16.7447 39.9587 17.2233 41.3576 18.0753 42.3891C18.9273 43.4205 20.0829 44 21.2878 44C22.4927 44 23.6482 43.4205 24.5002 42.3891C25.3522 41.3576 25.8309 39.9587 25.8309 38.5C25.826 37.5328 25.6105 36.5842 25.2062 35.75H37.8133C37.4089 36.5842 37.1934 37.5328 37.1886 38.5C37.1886 39.9587 37.6672 41.3576 38.5192 42.3891C39.3712 43.4205 40.5268 44 41.7317 44C42.9366 44 44.0921 43.4205 44.9441 42.3891C45.7961 41.3576 46.2748 39.9587 46.2748 38.5C46.2712 37.4843 46.0353 36.4896 45.5933 35.6263C45.7584 35.5478 45.9061 35.4236 46.0244 35.2636C46.1427 35.1036 46.2285 34.9123 46.2748 34.705V34.705ZM41.6067 11H48.2624L47.2515 16.5H41.107L41.6067 11ZM13.8712 11H21.4013L21.9011 16.5H15.0865L13.8712 11ZM16.915 24.75L15.6998 19.25H22.1623L22.6734 24.75H16.915ZM17.5284 27.5H22.9233L23.423 33H18.755L17.5284 27.5ZM21.2878 41.25C20.8385 41.25 20.3993 41.0887 20.0258 40.7865C19.6522 40.4844 19.3611 40.0549 19.1891 39.5524C19.0172 39.0499 18.9722 38.497 19.0599 37.9635C19.1475 37.4301 19.3639 36.9401 19.6815 36.5555C19.9992 36.1709 20.404 35.909 20.8446 35.8028C21.2853 35.6967 21.742 35.7512 22.1571 35.9593C22.5721 36.1675 22.9269 36.52 23.1765 36.9722C23.4261 37.4244 23.5593 37.9561 23.5593 38.5C23.5593 39.2294 23.32 39.9288 22.894 40.4445C22.468 40.9603 21.8902 41.25 21.2878 41.25ZM30.374 33H25.7059L25.2062 27.5H30.374V33ZM30.374 24.75H24.9563L24.4452 19.25H30.374V24.75ZM30.374 16.5H24.1953L23.6956 11H30.374V16.5ZM37.3135 33H32.6455V27.5H37.8133L37.3135 33ZM38.0745 24.75H32.6455V19.25H38.5742L38.0745 24.75ZM38.8355 16.5H32.6455V11H39.3238L38.8355 16.5ZM41.7317 41.25C41.2824 41.25 40.8432 41.0887 40.4697 40.7865C40.0961 40.4844 39.805 40.0549 39.633 39.5524C39.4611 39.0499 39.4161 38.497 39.5038 37.9635C39.5914 37.4301 39.8078 36.9401 40.1254 36.5555C40.4431 36.1709 40.8479 35.909 41.2885 35.8028C41.7292 35.6967 42.1859 35.7512 42.601 35.9593C43.016 36.1675 43.3708 36.52 43.6204 36.9722C43.87 37.4244 44.0032 37.9561 44.0032 38.5C44.0032 39.2294 43.7639 39.9288 43.3379 40.4445C42.9119 40.9603 42.3341 41.25 41.7317 41.25ZM44.2304 33H39.5964L40.0962 27.5H45.2412L44.2304 33ZM40.3574 24.75L40.8685 19.25H46.7631L45.7523 24.75H40.3574Z" fill="white"/>
</svg>
