<svg width="25" height="23" viewBox="0 0 25 23" fill="none" xmlns="http://www.w3.org/2000/svg">
<path d="M2.27577 18.2479L0.00422287 5.87289C-0.00124931 5.81809 -0.00124931 5.76269 0.00422287 5.70789C0.00422287 5.52555 0.0640526 5.35068 0.170551 5.22175C0.27705 5.09282 0.421495 5.02039 0.572107 5.02039H18.7785L19.5849 1.38351C19.6204 1.24199 19.6925 1.11807 19.7907 1.03013C19.8889 0.942202 20.008 0.894949 20.1301 0.895389H24.4233C24.5739 0.895389 24.7184 0.967822 24.8249 1.09675C24.9314 1.22568 24.9912 1.40055 24.9912 1.58289C24.9912 1.76523 24.9314 1.94009 24.8249 2.06902C24.7184 2.19796 24.5739 2.27039 24.4233 2.27039H20.5617L17.0408 18.2823C17.017 18.3781 16.9763 18.4666 16.9213 18.5414C16.8664 18.6162 16.7986 18.6756 16.7228 18.7154C16.9348 19.1479 17.0448 19.6425 17.0408 20.1454C17.0408 20.8747 16.8015 21.5742 16.3755 22.0899C15.9495 22.6057 15.3717 22.8954 14.7693 22.8954C14.1668 22.8954 13.589 22.6057 13.163 22.0899C12.737 21.5742 12.4977 20.8747 12.4977 20.1454C12.5001 19.6618 12.6079 19.1875 12.8101 18.7704H6.50652C6.70869 19.1875 6.81642 19.6618 6.81886 20.1454C6.81886 20.8747 6.57953 21.5742 6.15353 22.0899C5.72754 22.6057 5.14976 22.8954 4.54731 22.8954C3.94486 22.8954 3.36708 22.6057 2.94109 22.0899C2.51509 21.5742 2.27577 20.8747 2.27577 20.1454C2.27757 19.6375 2.3955 19.1402 2.6165 18.7085C2.53394 18.6693 2.46011 18.6072 2.40094 18.5272C2.34177 18.4472 2.2989 18.3515 2.27577 18.2479ZM4.60978 6.39539H1.28197L1.78738 9.14539H4.85965L4.60978 6.39539ZM18.4776 6.39539H14.7125L14.4626 9.14539H17.8699L18.4776 6.39539ZM16.9556 13.2704L17.5633 10.5204H14.332L14.0764 13.2704H16.9556ZM16.649 14.6454H13.9515L13.7016 17.3954H16.0356L16.649 14.6454ZM14.7693 21.5204C14.9939 21.5204 15.2135 21.4397 15.4003 21.2887C15.587 21.1376 15.7326 20.9228 15.8186 20.6716C15.9045 20.4203 15.927 20.1439 15.8832 19.8771C15.8394 19.6104 15.7312 19.3654 15.5724 19.1731C15.4135 18.9808 15.2112 18.8499 14.9908 18.7968C14.7705 18.7438 14.5422 18.771 14.3346 18.8751C14.1271 18.9791 13.9497 19.1554 13.8249 19.3815C13.7001 19.6076 13.6335 19.8734 13.6335 20.1454C13.6335 20.5101 13.7531 20.8598 13.9661 21.1177C14.1791 21.3755 14.468 21.5204 14.7693 21.5204ZM10.2262 17.3954H12.5602L12.8101 14.6454H10.2262V17.3954ZM10.2262 13.2704H12.935L13.1905 10.5204H10.2262V13.2704ZM10.2262 9.14539H13.3155L13.5653 6.39539H10.2262V9.14539ZM6.75639 17.3954H9.0904V14.6454H6.50652L6.75639 17.3954ZM6.3759 13.2704H9.0904V10.5204H6.12603L6.3759 13.2704ZM5.99542 9.14539H9.0904V6.39539H5.75123L5.99542 9.14539ZM4.54731 21.5204C4.77195 21.5204 4.99154 21.4397 5.17831 21.2887C5.36509 21.1376 5.51066 20.9228 5.59663 20.6716C5.68259 20.4203 5.70508 20.1439 5.66126 19.8771C5.61744 19.6104 5.50926 19.3654 5.35042 19.1731C5.19158 18.9808 4.98921 18.8499 4.76889 18.7968C4.54857 18.7438 4.32021 18.771 4.11267 18.8751C3.90513 18.9791 3.72775 19.1554 3.60295 19.3815C3.47815 19.6076 3.41154 19.8734 3.41154 20.1454C3.41154 20.5101 3.5312 20.8598 3.7442 21.1177C3.9572 21.3755 4.24609 21.5204 4.54731 21.5204ZM3.29796 17.3954H5.61494L5.36507 14.6454H2.79254L3.29796 17.3954ZM5.23445 13.2704L4.9789 10.5204H2.03157L2.53699 13.2704H5.23445Z" fill="current"/>
</svg>
