<svg width="28" height="28" fill="none" xmlns="http://www.w3.org/2000/svg"><path fill-rule="evenodd" clip-rule="evenodd" d="M23.713 7.118c.158.077.296.188.405.325a1.167 1.167 0 01.256 1.016L22.17 17.5a1.167 1.167 0 01-1.166.875H8.169a1.167 1.167 0 01-1.166-.956l-2.1-11.784a1.167 1.167 0 00-1.167-.968h-1.4V2.334h1.4a3.5 3.5 0 013.453 2.893L7.504 7h15.704c.175.001.348.041.505.118zM9.15 16.042h10.944l1.633-6.709H7.936l1.213 6.709zm-.396 3.406a3.267 3.267 0 103.266 3.267 3.278 3.278 0 00-3.266-3.267zm0 4.434a1.167 1.167 0 110-2.333 1.167 1.167 0 010 2.333zm12.25-4.434a3.267 3.267 0 103.266 3.267 3.278 3.278 0 00-3.266-3.267zm0 4.434a1.166 1.166 0 110-2.333 1.166 1.166 0 010 2.333z" fill="#1A7CFF"></path></svg>