<svg width="29" height="22" viewBox="0 0 29 22" fill="none" xmlns="http://www.w3.org/2000/svg">
<path d="M27.4661 13.2481L25.5022 0.6584C25.4891 0.604176 25.4707 0.551203 25.4471 0.500624C25.3863 0.326271 25.2708 0.178985 25.1262 0.0911673C24.9815 0.00334953 24.8196 -0.0178065 24.6759 0.0323534L7.30683 6.09579L5.32349 2.88672C5.24246 2.76319 5.13224 2.66873 5.0092 2.61735C4.88615 2.56598 4.75684 2.56043 4.64046 2.60153L0.544698 4.03133C0.401012 4.08149 0.28739 4.19886 0.228828 4.35762C0.170265 4.51637 0.171559 4.70351 0.232425 4.87786C0.293291 5.05221 0.408742 5.1995 0.553382 5.28732C0.698021 5.37514 0.860001 5.39629 1.00369 5.34613L4.6877 4.06006L13.3916 18.1983C13.4463 18.282 13.5147 18.353 13.592 18.4063C13.6694 18.4595 13.7539 18.4937 13.8396 18.5065C13.7817 18.9907 13.8418 19.5003 14.0135 19.9798C14.257 20.6772 14.7188 21.2664 15.2973 21.6177C15.8759 21.9689 16.5238 22.0536 17.0986 21.8529C17.6733 21.6523 18.1278 21.1828 18.362 20.5478C18.5963 19.9128 18.5911 19.1642 18.3476 18.4668C18.1839 18.0052 17.9228 17.5876 17.5907 17.256L23.6043 15.1567C23.5507 15.6229 23.6062 16.1123 23.7653 16.5755C24.0088 17.2729 24.4706 17.8621 25.0491 18.2134C25.6277 18.5646 26.2756 18.6493 26.8504 18.4486C27.4251 18.248 27.8796 17.7785 28.1138 17.1435C28.3481 16.5085 28.3429 15.7599 28.0995 15.0625C27.9282 14.5775 27.6497 14.1412 27.2948 13.802C27.3604 13.737 27.4101 13.653 27.4399 13.5569C27.4696 13.4607 27.4786 13.3549 27.4661 13.2481V13.2481ZM21.2829 2.69185L24.4577 1.58356L24.8935 4.38148L21.9625 5.40466L21.2829 2.69185ZM8.05295 7.31035L11.6449 6.05644L12.8012 8.60282L9.55062 9.73758L8.05295 7.31035ZM11.7998 13.3775L10.3022 10.9503L13.3848 9.87411L14.5466 12.4186L11.7998 13.3775ZM12.5514 14.5901L15.1248 13.6918L16.2811 16.2382L14.0545 17.0155L12.5514 14.5901ZM16.6396 20.5381C16.4253 20.6129 16.1889 20.609 15.9602 20.5267C15.7316 20.4444 15.5211 20.2876 15.3552 20.0759C15.1893 19.8643 15.0755 19.6074 15.0283 19.3378C14.9811 19.0682 15.0025 18.7979 15.0899 18.5611C15.1772 18.3243 15.3265 18.1317 15.519 18.0076C15.7115 17.8835 15.9384 17.8335 16.1712 17.8639C16.4039 17.8943 16.632 18.0037 16.8265 18.1784C17.021 18.353 17.1733 18.585 17.2641 18.8451C17.3858 19.1938 17.3884 19.568 17.2713 19.8856C17.1542 20.2031 16.9269 20.4378 16.6396 20.5381ZM19.5967 15.0807L17.3701 15.858L16.2137 13.3116L18.6788 12.4511L19.5967 15.0807ZM18.2198 11.1363L15.6355 12.0385L14.4738 9.49397L17.3018 8.50672L18.2198 11.1363ZM16.8428 7.19192L13.8956 8.22078L12.7392 5.6744L15.9248 4.56233L16.8428 7.19192ZM22.9069 13.9251L20.6803 14.7024L19.7623 12.0729L22.2273 11.2123L22.9069 13.9251ZM21.893 9.85403L19.3033 10.7581L18.3853 8.12846L21.2134 7.14121L21.893 9.85403ZM20.879 5.78292L17.9263 6.81367L17.0084 4.18407L20.194 3.072L20.879 5.78292ZM26.3914 17.1338C26.1771 17.2086 25.9407 17.2047 25.712 17.1224C25.4834 17.0401 25.2729 16.8833 25.107 16.6716C24.9411 16.46 24.8274 16.2031 24.7801 15.9335C24.7329 15.6639 24.7543 15.3936 24.8417 15.1568C24.929 14.92 25.0784 14.7274 25.2708 14.6033C25.4633 14.4792 25.6903 14.4292 25.923 14.4596C26.1557 14.49 26.3838 14.5994 26.5783 14.774C26.7729 14.9487 26.9251 15.1807 27.0159 15.4408C27.1377 15.7895 27.1402 16.1637 27.0231 16.4813C26.906 16.7988 26.6787 17.0335 26.3914 17.1338ZM26.2063 12.7733L23.9959 13.545L23.3163 10.8322L25.7705 9.97543L26.2063 12.7733ZM22.9819 9.47388L22.3077 6.75918L25.1195 5.7776L25.5553 8.57552L22.9819 9.47388Z" fill="#333333"/>
</svg>
