<svg width="24" height="24" viewBox="0 0 24 24" fill="none" xmlns="http://www.w3.org/2000/svg">
<g id="Iconly/Regular/Bulk/Delete">
<g id="Delete">
<path id="Fill 1" opacity="0.4" d="M19.6432 9.48857C19.6432 9.55656 19.1103 16.2973 18.8059 19.1342C18.6152 20.8752 17.4929 21.9311 15.8094 21.9611C14.5159 21.9901 13.2497 22.0001 12.0038 22.0001C10.6812 22.0001 9.38766 21.9901 8.13209 21.9611C6.50501 21.9221 5.38171 20.8452 5.20082 19.1342C4.88766 16.2873 4.36442 9.55656 4.3547 9.48857C4.34497 9.28357 4.41111 9.08858 4.54532 8.93059C4.67758 8.78459 4.8682 8.69659 5.06855 8.69659H18.9391C19.1385 8.69659 19.3194 8.78459 19.4623 8.93059C19.5956 9.08858 19.6627 9.28357 19.6432 9.48857Z" fill="black"/>
<path id="Fill 4" d="M21 5.97698C21 5.566 20.6761 5.24401 20.2871 5.24401H17.3714C16.7781 5.24401 16.2627 4.82202 16.1304 4.22704L15.967 3.49807C15.7385 2.6171 14.9498 2.00012 14.0647 2.00012H9.93624C9.0415 2.00012 8.26054 2.6171 8.02323 3.54607L7.87054 4.22804C7.7373 4.82202 7.22185 5.24401 6.62957 5.24401H3.71385C3.32386 5.24401 3 5.566 3 5.97698V6.35697C3 6.75796 3.32386 7.08994 3.71385 7.08994H20.2871C20.6761 7.08994 21 6.75796 21 6.35697V5.97698Z" fill="black"/>
</g>
</g>
</svg>
