<svg width="14" height="14" viewBox="0 0 14 14" fill="none" xmlns="http://www.w3.org/2000/svg">
<path d="M6.33331 3.66666H7.66665V4.99999H6.33331V3.66666ZM6.33331 6.33333H7.66665V10.3333H6.33331V6.33333ZM6.99998 0.333328C3.31998 0.333328 0.333313 3.31999 0.333313 6.99999C0.333313 10.68 3.31998 13.6667 6.99998 13.6667C10.68 13.6667 13.6666 10.68 13.6666 6.99999C13.6666 3.31999 10.68 0.333328 6.99998 0.333328ZM6.99998 12.3333C4.05998 12.3333 1.66665 9.93999 1.66665 6.99999C1.66665 4.05999 4.05998 1.66666 6.99998 1.66666C9.93998 1.66666 12.3333 4.05999 12.3333 6.99999C12.3333 9.93999 9.93998 12.3333 6.99998 12.3333Z" fill="black"/>
</svg>
