<svg width="24" height="24" viewBox="0 0 24 24" fill="none" xmlns="http://www.w3.org/2000/svg">
<rect width="24" height="24" rx="8" fill="white"/>
<rect x="0.5" y="0.5" width="23" height="23" rx="7.5" stroke="black" stroke-opacity="0.1"/>
<g clip-path="url(#clip0_137_568)">
<g clip-path="url(#clip1_137_568)">
<path fill-rule="evenodd" clip-rule="evenodd" d="M19.1595 6.83318C19.3704 7.04415 19.4889 7.33024 19.4889 7.62855C19.4889 7.92686 19.3704 8.21296 19.1595 8.42393L10.7273 16.8562C10.6158 16.9676 10.4835 17.0561 10.3379 17.1164C10.1923 17.1767 10.0363 17.2077 9.87864 17.2077C9.72104 17.2077 9.56497 17.1767 9.41936 17.1164C9.27375 17.0561 9.14145 16.9676 9.03002 16.8562L4.84052 12.6674C4.73307 12.5636 4.64737 12.4395 4.58841 12.3023C4.52945 12.165 4.49841 12.0174 4.49711 11.868C4.49581 11.7186 4.52428 11.5705 4.58085 11.4322C4.63741 11.294 4.72095 11.1684 4.82658 11.0627C4.9322 10.9571 5.05781 10.8736 5.19607 10.817C5.33433 10.7604 5.48247 10.732 5.63185 10.7333C5.78122 10.7346 5.92885 10.7656 6.0661 10.8246C6.20335 10.8835 6.32749 10.9692 6.43127 11.0767L9.87827 14.5237L17.568 6.83318C17.6725 6.72864 17.7965 6.6457 17.9331 6.58912C18.0696 6.53254 18.216 6.50342 18.3638 6.50342C18.5116 6.50342 18.6579 6.53254 18.7945 6.58912C18.931 6.6457 19.055 6.72864 19.1595 6.83318Z" fill="black" fill-opacity="0.1"/>
</g>
</g>
<defs>
<clipPath id="clip0_137_568">
<rect width="24" height="24" fill="white"/>
</clipPath>
<clipPath id="clip1_137_568">
<rect width="18" height="18" fill="white" transform="translate(3 3)"/>
</clipPath>
</defs>
</svg>
