<svg width="220" height="220" viewBox="0 0 220 220" fill="none" xmlns="http://www.w3.org/2000/svg">
<rect width="220" height="220" fill="#EFEFEF"/>
<path d="M30.318 162.436V175.092H31.438V162.436H30.318ZM25.712 166.972V167.938H28.134V166.972H25.712ZM27.784 162.73V174.448H28.876V162.73H27.784ZM23.276 164.396V166.006C23.276 168.33 22.296 170.64 20.532 171.704L21.246 172.572C23.108 171.396 24.172 168.778 24.172 166.006V164.396H23.276ZM23.514 164.396V166.006C23.514 168.652 24.536 171.144 26.384 172.264L27.098 171.41C25.362 170.402 24.41 168.204 24.41 166.006V164.396H23.514ZM20.882 163.906V164.872H26.664V163.906H20.882ZM39.2489 170.416C36.5469 170.416 34.8389 171.298 34.8389 172.754C34.8389 174.196 36.5469 175.064 39.2489 175.064C41.9369 175.064 43.6589 174.196 43.6589 172.754C43.6589 171.298 41.9369 170.416 39.2489 170.416ZM39.2489 171.326C41.2369 171.326 42.4969 171.872 42.4969 172.754C42.4969 173.622 41.2369 174.168 39.2489 174.168C37.2609 174.168 35.9869 173.622 35.9869 172.754C35.9869 171.872 37.2609 171.326 39.2489 171.326ZM34.9369 163.066V164.018H43.0849V163.066H34.9369ZM33.5789 168.33V169.268H45.0029V168.33H33.5789ZM38.2689 165.894V168.596H39.4169V165.894H38.2689ZM42.4129 163.066V164.144C42.4129 165.138 42.4129 166.062 42.0629 167.364L43.2109 167.504C43.5469 166.188 43.5469 165.166 43.5469 164.144V163.066H42.4129ZM47.4518 167.882V168.834H53.9338V167.882H47.4518ZM50.0418 168.638V171.55H51.2178V168.638H50.0418ZM47.4518 163.626V168.218H48.6138V164.578H53.8638V163.626H47.4518ZM55.5998 162.422V175.106H56.7618V162.422H55.5998ZM46.6818 172.362C49.0758 172.376 52.0998 172.32 54.8718 171.9L54.7738 171.032C52.0998 171.354 48.9918 171.382 46.5138 171.396L46.6818 172.362ZM60.8767 166.23V167.182H69.4727V166.23H60.8767ZM59.3227 168.876V169.828H70.8027V168.876H59.3227ZM60.8767 162.898V166.706H62.0247V162.898H60.8767ZM60.7927 173.832V174.784H69.5427V173.832H60.7927ZM60.7927 171.088V174.084H61.9407V171.088H60.7927ZM79.2191 163.094V164.382C79.2191 166.314 77.9871 168.022 76.0831 168.722L76.6991 169.66C78.8131 168.834 80.1851 166.818 80.1851 164.382V163.094H79.2191ZM79.4291 163.094V164.466C79.4291 166.664 80.8151 168.54 82.8451 169.296L83.4611 168.386C81.6411 167.756 80.3811 166.174 80.3811 164.466V163.094H79.4291ZM84.8051 162.436V170.108H85.9671V162.436H84.8051ZM85.6451 165.698V166.678H87.8431V165.698H85.6451ZM81.9351 170.458C79.3451 170.458 77.7771 171.312 77.7771 172.768C77.7771 174.224 79.3451 175.064 81.9351 175.064C84.5251 175.064 86.0931 174.224 86.0931 172.768C86.0931 171.312 84.5251 170.458 81.9351 170.458ZM81.9351 171.382C83.8111 171.382 84.9591 171.886 84.9591 172.768C84.9591 173.65 83.8111 174.154 81.9351 174.154C80.0591 174.154 78.9111 173.65 78.9111 172.768C78.9111 171.886 80.0591 171.382 81.9351 171.382ZM94.17 169.156V171.34H95.318V169.156H94.17ZM89.018 168.54V169.492H100.456V168.54H89.018ZM90.082 162.828V163.78H99.378V162.828H90.082ZM90.138 166.426V167.378H99.322V166.426H90.138ZM92 163.248V167.042H93.162V163.248H92ZM96.312 163.248V167.042H97.46V163.248H96.312ZM90.418 170.962V174.924H99.056V170.962H90.418ZM97.922 171.886V173.986H91.566V171.886H97.922ZM111.095 162.422V175.106H112.257V162.422H111.095ZM105.579 163.402C103.717 163.402 102.373 165.124 102.373 167.812C102.373 170.514 103.717 172.236 105.579 172.236C107.455 172.236 108.799 170.514 108.799 167.812C108.799 165.124 107.455 163.402 105.579 163.402ZM105.579 164.452C106.825 164.452 107.679 165.768 107.679 167.812C107.679 169.87 106.825 171.214 105.579 171.214C104.347 171.214 103.479 169.87 103.479 167.812C103.479 165.768 104.347 164.452 105.579 164.452ZM115.504 163.668V171.914H121.328V163.668H115.504ZM120.194 164.606V170.976H116.638V164.606H120.194ZM123.974 162.422V175.106H125.136V162.422H123.974ZM131.015 164.242V166.3C131.015 168.484 129.489 170.864 127.655 171.732L128.327 172.656C130.343 171.662 131.953 168.974 131.953 166.3V164.242H131.015ZM131.239 164.242V166.3C131.239 168.932 132.863 171.396 134.907 172.348L135.565 171.424C133.703 170.626 132.177 168.442 132.177 166.3V164.242H131.239ZM128.075 163.724V164.704H135.145V163.724H128.075ZM136.853 162.436V175.092H138.015V162.436H136.853ZM149.102 162.422V175.092H150.278V162.422H149.102ZM149.956 167.56V168.526H152.294V167.56H149.956ZM145.868 163.794V163.976C145.868 167.322 144.118 170.024 140.618 171.802L141.262 172.698C145.35 170.64 147.002 167.392 147.002 163.794H145.868ZM141.206 163.794V164.746H146.47V163.794H141.206ZM158.806 169.856V174.924H163.188V169.856H162.11V171.438H159.898V169.856H158.806ZM159.898 172.306H162.11V174.014H159.898V172.306ZM165.638 169.786V170.836C165.638 172.124 164.854 173.51 163.328 174.154L163.916 175.036C165.666 174.294 166.534 172.558 166.534 170.836V169.786H165.638ZM165.876 169.786V170.836C165.876 172.628 166.73 174.308 168.494 175.036L169.082 174.154C167.556 173.566 166.772 172.194 166.772 170.836V169.786H165.876ZM163.72 165.404V166.37H167.122V165.404H163.72ZM160.808 162.996C158.918 162.996 157.546 164.172 157.546 165.908C157.546 167.63 158.918 168.82 160.808 168.82C162.698 168.82 164.07 167.63 164.07 165.908C164.07 164.172 162.698 162.996 160.808 162.996ZM160.808 163.962C162.054 163.962 162.95 164.76 162.95 165.908C162.95 167.042 162.054 167.854 160.808 167.854C159.562 167.854 158.666 167.042 158.666 165.908C158.666 164.76 159.562 163.962 160.808 163.962ZM166.604 162.436V169.142H167.766V162.436H166.604ZM173.617 163.402C171.769 163.402 170.467 165.124 170.467 167.812C170.467 170.514 171.769 172.236 173.617 172.236C175.451 172.236 176.767 170.514 176.767 167.812C176.767 165.124 175.451 163.402 173.617 163.402ZM173.617 164.452C174.835 164.452 175.661 165.768 175.661 167.812C175.661 169.87 174.835 171.214 173.617 171.214C172.399 171.214 171.573 169.87 171.573 167.812C171.573 165.768 172.399 164.452 173.617 164.452ZM179.511 162.422V175.106H180.659V162.422H179.511ZM176.389 167.252V168.204H180.015V167.252H176.389ZM185.922 168.946V172.74H187.07V168.946H185.922ZM190.598 168.946V172.74H191.76V168.946H190.598ZM183.122 172.516V173.482H194.588V172.516H183.122ZM188.834 163.234C186.146 163.234 184.228 164.508 184.228 166.496C184.228 168.47 186.146 169.744 188.834 169.744C191.508 169.744 193.426 168.47 193.426 166.496C193.426 164.508 191.508 163.234 188.834 163.234ZM188.834 164.158C190.864 164.158 192.306 165.082 192.306 166.496C192.306 167.896 190.864 168.82 188.834 168.82C186.804 168.82 185.348 167.896 185.348 166.496C185.348 165.082 186.804 164.158 188.834 164.158ZM197.23 174.08C196.984 174.08 196.774 173.992 196.598 173.816C196.423 173.64 196.335 173.43 196.335 173.185C196.335 172.939 196.423 172.729 196.598 172.553C196.774 172.378 196.984 172.29 197.23 172.29C197.475 172.29 197.685 172.378 197.861 172.553C198.037 172.729 198.125 172.939 198.125 173.185C198.125 173.347 198.083 173.496 198 173.632C197.921 173.768 197.813 173.877 197.677 173.96C197.545 174.04 197.395 174.08 197.23 174.08Z" fill="#A19FAF"/>
<rect x="39.5" y="46.5" width="141" height="93" stroke="#A19FAF" stroke-width="7"/>
<path d="M123.293 137.5L144 102.871L164.707 137.5H123.293Z" stroke="#A19FAF" stroke-width="5"/>
<path d="M140 114L154.722 137.25H125.278L140 114Z" fill="#A19FAF"/>
<path d="M42.2021 138.25L92.5 63.479L142.798 138.25H42.2021Z" fill="#E8E8E8" stroke="#A19FAF" stroke-width="5"/>
<path d="M84 76L123.837 136.75H44.1628L84 76Z" fill="#A19FAF"/>
<circle cx="154" cy="66" r="10" fill="#A19FAF"/>
</svg>
