<svg width="200" height="200" viewBox="0 0 200 200" fill="none" xmlns="http://www.w3.org/2000/svg">
<path d="M100 16.666C54.0001 16.666 16.6667 53.9994 16.6667 99.9994C16.6667 145.999 54.0001 183.333 100 183.333C146 183.333 183.333 145.999 183.333 99.9994C183.333 53.9994 146 16.666 100 16.666ZM100 108.333C95.4168 108.333 91.6668 104.583 91.6668 99.9994V66.666C91.6668 62.0827 95.4168 58.3327 100 58.3327C104.583 58.3327 108.333 62.0827 108.333 66.666V99.9994C108.333 104.583 104.583 108.333 100 108.333ZM108.333 141.666H91.6668V124.999H108.333V141.666Z" fill="#04C09E"/>
</svg>
