<svg width="100%" height="100%" viewBox="0 0 14 14" fill="none" xmlns="http://www.w3.org/2000/svg">
<path d="M6.33334 3.66666H7.66668V4.99999H6.33334V3.66666ZM6.33334 6.33333H7.66668V10.3333H6.33334V6.33333ZM7.00001 0.333328C3.32001 0.333328 0.333344 3.31999 0.333344 6.99999C0.333344 10.68 3.32001 13.6667 7.00001 13.6667C10.68 13.6667 13.6667 10.68 13.6667 6.99999C13.6667 3.31999 10.68 0.333328 7.00001 0.333328ZM7.00001 12.3333C4.06001 12.3333 1.66668 9.93999 1.66668 6.99999C1.66668 4.05999 4.06001 1.66666 7.00001 1.66666C9.94001 1.66666 12.3333 4.05999 12.3333 6.99999C12.3333 9.93999 9.94001 12.3333 7.00001 12.3333Z" fill="black"/>
</svg>
