<svg width="361" height="44" viewBox="0 0 361 44" fill="none" xmlns="http://www.w3.org/2000/svg">
<path d="M79.414 40H88.254L90.854 27.04C91.294 24.76 91.654 22.36 92.054 20.12H92.214C92.494 22.36 92.894 24.76 93.374 27.04L96.054 40H105.054L110.214 10.2H103.454L101.494 23.8C101.134 26.88 100.734 30.04 100.374 33.24H100.174C99.574 30.04 99.054 26.84 98.454 23.8L95.374 10.2H89.334L86.294 23.8C85.694 26.88 85.094 30.04 84.534 33.24H84.374C83.974 30.04 83.574 26.92 83.174 23.8L81.294 10.2H74.014L79.414 40ZM126.517 40.56C134.637 40.56 140.157 34.72 140.157 24.96C140.157 15.24 134.637 9.68 126.517 9.68C118.397 9.68 112.877 15.2 112.877 24.96C112.877 34.72 118.397 40.56 126.517 40.56ZM126.517 34.4C122.597 34.4 120.197 30.72 120.197 24.96C120.197 19.2 122.597 15.8 126.517 15.8C130.437 15.8 132.877 19.2 132.877 24.96C132.877 30.72 130.437 34.4 126.517 34.4ZM157.962 40.56C166.082 40.56 171.602 34.72 171.602 24.96C171.602 15.24 166.082 9.68 157.962 9.68C149.842 9.68 144.322 15.2 144.322 24.96C144.322 34.72 149.842 40.56 157.962 40.56ZM157.962 34.4C154.042 34.4 151.642 30.72 151.642 24.96C151.642 19.2 154.042 15.8 157.962 15.8C161.882 15.8 164.322 19.2 164.322 24.96C164.322 30.72 161.882 34.4 157.962 34.4ZM179.687 40H188.527L191.127 27.04C191.567 24.76 191.927 22.36 192.327 20.12H192.487C192.767 22.36 193.167 24.76 193.647 27.04L196.327 40H205.327L210.487 10.2H203.727L201.767 23.8C201.407 26.88 201.007 30.04 200.647 33.24H200.447C199.847 30.04 199.327 26.84 198.727 23.8L195.647 10.2H189.607L186.567 23.8C185.967 26.88 185.367 30.04 184.807 33.24H184.647C184.247 30.04 183.847 26.92 183.447 23.8L181.567 10.2H174.287L179.687 40ZM221.75 25.12C222.51 22.16 223.31 18.68 224.03 15.56H224.19C224.99 18.6 225.75 22.16 226.55 25.12L227.19 27.64H221.11L221.75 25.12ZM210.75 40H218.03L219.75 33.16H228.55L230.27 40H237.79L228.55 10.2H219.99L210.75 40ZM259.297 40.56C266.497 40.56 270.657 36.2 270.657 31.24C270.657 27.04 268.457 24.56 264.777 23.08L261.057 21.6C258.417 20.56 256.577 19.92 256.577 18.24C256.577 16.68 257.897 15.8 260.097 15.8C262.417 15.8 264.257 16.6 266.217 18.08L269.777 13.6C267.177 11 263.537 9.68 260.097 9.68C253.777 9.68 249.297 13.68 249.297 18.68C249.297 23 252.217 25.6 255.337 26.84L259.137 28.44C261.697 29.52 263.337 30.08 263.337 31.8C263.337 33.4 262.097 34.4 259.457 34.4C257.097 34.4 254.337 33.16 252.257 31.36L248.177 36.28C251.257 39.12 255.417 40.56 259.297 40.56ZM275.604 40H282.764V27.76H292.564V40H299.684V10.2H292.564V21.56H282.764V10.2H275.604V40ZM318.861 40.56C326.981 40.56 332.501 34.72 332.501 24.96C332.501 15.24 326.981 9.68 318.861 9.68C310.741 9.68 305.221 15.2 305.221 24.96C305.221 34.72 310.741 40.56 318.861 40.56ZM318.861 34.4C314.941 34.4 312.541 30.72 312.541 24.96C312.541 19.2 314.941 15.8 318.861 15.8C322.781 15.8 325.221 19.2 325.221 24.96C325.221 30.72 322.781 34.4 318.861 34.4ZM338.026 40H345.186V30.12H348.666C354.986 30.12 360.426 27 360.426 19.92C360.426 12.56 355.026 10.2 348.506 10.2H338.026V40ZM345.186 24.48V15.88H348.106C351.546 15.88 353.466 16.92 353.466 19.92C353.466 22.84 351.786 24.48 348.306 24.48H345.186Z" fill="white"/>
<path d="M46.2746 34.705L50.8177 9.95501C50.8287 9.8454 50.8287 9.73461 50.8177 9.62501C50.8177 9.26033 50.6981 8.9106 50.4851 8.65273C50.2721 8.39487 49.9832 8.25001 49.682 8.25001H13.2691L11.6563 0.976256C11.5855 0.69321 11.4411 0.445361 11.2447 0.269497C11.0483 0.093633 10.8103 -0.000872914 10.566 6.07642e-06H1.97952C1.6783 6.07642e-06 1.38941 0.144872 1.17641 0.402734C0.963411 0.660597 0.84375 1.01033 0.84375 1.37501C0.84375 1.73968 0.963411 2.08942 1.17641 2.34728C1.38941 2.60514 1.6783 2.75001 1.97952 2.75001H9.70277L16.7446 34.7738C16.7921 34.9655 16.8736 35.1423 16.9835 35.292C17.0934 35.4416 17.2289 35.5604 17.3806 35.64C16.9566 36.505 16.7366 37.4942 16.7446 38.5C16.7446 39.9587 17.2232 41.3576 18.0752 42.3891C18.9272 43.4205 20.0827 44 21.2877 44C22.4926 44 23.6481 43.4205 24.5001 42.3891C25.3521 41.3576 25.8307 39.9587 25.8307 38.5C25.8259 37.5328 25.6104 36.5842 25.2061 35.75H37.8131C37.4088 36.5842 37.1933 37.5328 37.1885 38.5C37.1885 39.9587 37.6671 41.3576 38.5191 42.3891C39.3711 43.4205 40.5266 44 41.7316 44C42.9365 44 44.092 43.4205 44.944 42.3891C45.796 41.3576 46.2746 39.9587 46.2746 38.5C46.271 37.4843 46.0352 36.4896 45.5932 35.6263C45.7583 35.5478 45.9059 35.4236 46.0243 35.2636C46.1426 35.1036 46.2284 34.9123 46.2746 34.705ZM41.6066 11H48.2622L47.2514 16.5H41.1069L41.6066 11ZM13.8711 11H21.4012L21.901 16.5H15.0863L13.8711 11ZM16.9149 24.75L15.6997 19.25H22.1622L22.6733 24.75H16.9149ZM17.5282 27.5H22.9232L23.4229 33H18.7549L17.5282 27.5ZM21.2877 41.25C20.8384 41.25 20.3992 41.0887 20.0256 40.7865C19.6521 40.4844 19.3609 40.0549 19.189 39.5524C19.0171 39.0499 18.9721 38.497 19.0598 37.9635C19.1474 37.4301 19.3637 36.9401 19.6814 36.5555C19.9991 36.1709 20.4039 35.909 20.8445 35.8028C21.2851 35.6967 21.7419 35.7512 22.1569 35.9593C22.572 36.1675 22.9268 36.52 23.1764 36.9722C23.426 37.4244 23.5592 37.9561 23.5592 38.5C23.5592 39.2294 23.3199 39.9288 22.8939 40.4445C22.4679 40.9603 21.8901 41.25 21.2877 41.25ZM30.3738 33H25.7058L25.2061 27.5H30.3738V33ZM30.3738 24.75H24.9562L24.4451 19.25H30.3738V24.75ZM30.3738 16.5H24.1952L23.6955 11H30.3738V16.5ZM37.3134 33H32.6454V27.5H37.8131L37.3134 33ZM38.0744 24.75H32.6454V19.25H38.5741L38.0744 24.75ZM38.8353 16.5H32.6454V11H39.3237L38.8353 16.5ZM41.7316 41.25C41.2823 41.25 40.8431 41.0887 40.4695 40.7865C40.096 40.4844 39.8048 40.0549 39.6329 39.5524C39.461 39.0499 39.416 38.497 39.5037 37.9635C39.5913 37.4301 39.8076 36.9401 40.1253 36.5555C40.443 36.1709 40.8478 35.909 41.2884 35.8028C41.729 35.6967 42.1858 35.7512 42.6008 35.9593C43.0159 36.1675 43.3707 36.52 43.6203 36.9722C43.8699 37.4244 44.0031 37.9561 44.0031 38.5C44.0031 39.2294 43.7638 39.9288 43.3378 40.4445C42.9118 40.9603 42.334 41.25 41.7316 41.25ZM44.2303 33H39.5963L40.096 27.5H45.2411L44.2303 33ZM40.3573 24.75L40.8684 19.25H46.763L45.7522 24.75H40.3573Z" fill="white"/>
</svg>
