<?xml version="1.0" encoding="iso-8859-1"?>
<!DOCTYPE svg PUBLIC "-//W3C//DTD SVG 1.1//EN" "http://www.w3.org/Graphics/SVG/1.1/DTD/svg11.dtd">
<svg version="1.1" id="Capa_1" xmlns="http://www.w3.org/2000/svg" xmlns:xlink="http://www.w3.org/1999/xlink" x="0px" y="0px"
	viewBox="0 0 297.5 297.5" style="enable-background:new 0 0 297.5 297.5;" xml:space="preserve">
    <path style="fill:#BDC3C7;" d="M258.525,20.3v256.9h-15.19v-18.16c0-13.3-10.82-24.12-24.12-24.12
      c-13.29,0-24.11,10.82-24.11,24.12v18.16h-22.24v-18.16c0-13.3-10.82-24.12-24.12-24.12c-13.3,0-24.12,10.82-24.12,24.12v18.16
      h-22.23v-18.16c0-13.3-10.82-24.12-24.12-24.12s-24.12,10.82-24.12,24.12v18.16h-15.18V20.3h15.18v18.16
      c0,13.3,10.82,24.12,24.12,24.12s24.12-10.82,24.12-24.12V20.3h22.23v18.16c0,13.3,10.82,24.12,24.12,24.12
      c13.3,0,24.12-10.82,24.12-24.12V20.3h22.24v18.16c0,13.3,10.82,24.12,24.11,24.12c13.3,0,24.12-10.82,24.12-24.12V20.3H258.525z
      M224.945,99.12c0-5.53-4.49-10.02-10.03-10.02H82.585c-5.54,0-10.03,4.49-10.03,10.02c0,5.54,4.49,10.03,10.03,10.03h132.33
      C220.455,109.15,224.945,104.66,224.945,99.12z M224.945,132.21c0-5.54-4.49-10.03-10.03-10.03H82.585
      c-5.54,0-10.03,4.49-10.03,10.03c0,5.53,4.49,10.02,10.03,10.02h132.33C220.455,142.23,224.945,137.74,224.945,132.21z
      M224.945,165.29c0-5.53-4.49-10.02-10.03-10.02H82.585c-5.54,0-10.03,4.49-10.03,10.02c0,5.54,4.49,10.03,10.03,10.03h132.33
      C220.455,175.32,224.945,170.83,224.945,165.29z M224.945,198.38c0-5.54-4.49-10.03-10.03-10.03h-33.08
      c-5.54,0-10.03,4.49-10.03,10.03c0,5.53,4.49,10.02,10.03,10.02h33.08C220.455,208.4,224.945,203.91,224.945,198.38z"/>
    <path d="M278.575,10.28v276.94c0,5.54-4.49,10.03-10.02,10.03h-35.24c-5.54,0-10.03-4.49-10.03-10.03v-28.18
      c0-2.25-1.82-4.07-4.07-4.07c-2.24,0-4.06,1.82-4.06,4.07v28.18c0,5.54-4.49,10.03-10.03,10.03h-42.28
      c-5.54,0-10.03-4.49-10.03-10.03v-28.18c0-2.25-1.82-4.07-4.07-4.07c-2.24,0-4.07,1.82-4.07,4.07v28.18
      c0,5.54-4.48,10.03-10.02,10.03h-42.28c-5.54,0-10.03-4.49-10.03-10.03v-28.18c0-2.25-1.82-4.07-4.07-4.07
      c-2.24,0-4.07,1.82-4.07,4.07v28.18c0,5.54-4.49,10.03-10.02,10.03h-35.24c-5.54,0-10.02-4.49-10.02-10.03V10.28
      c0-5.54,4.48-10.03,10.02-10.03h35.24c5.53,0,10.02,4.49,10.02,10.03v28.18c0,2.25,1.83,4.07,4.07,4.07
      c2.25,0,4.07-1.82,4.07-4.07V10.28c0-5.54,4.49-10.03,10.03-10.03h42.28c5.54,0,10.02,4.49,10.02,10.03v28.18
      c0,2.25,1.83,4.07,4.07,4.07c2.25,0,4.07-1.82,4.07-4.07V10.28c0-5.54,4.49-10.03,10.03-10.03h42.28
      c5.54,0,10.03,4.49,10.03,10.03v28.18c0,2.25,1.82,4.07,4.06,4.07c2.25,0,4.07-1.82,4.07-4.07V10.28
      c0-5.54,4.49-10.03,10.03-10.03h35.24C274.085,0.25,278.575,4.74,278.575,10.28z M258.525,277.2V20.3h-15.19v18.16
      c0,13.3-10.82,24.12-24.12,24.12c-13.29,0-24.11-10.82-24.11-24.12V20.3h-22.24v18.16c0,13.3-10.82,24.12-24.12,24.12
      c-13.3,0-24.12-10.82-24.12-24.12V20.3h-22.23v18.16c0,13.3-10.82,24.12-24.12,24.12s-24.12-10.82-24.12-24.12V20.3h-15.18v256.9
      h15.18v-18.16c0-13.3,10.82-24.12,24.12-24.12s24.12,10.82,24.12,24.12v18.16h22.23v-18.16c0-13.3,10.82-24.12,24.12-24.12
      c13.3,0,24.12,10.82,24.12,24.12v18.16h22.24v-18.16c0-13.3,10.82-24.12,24.11-24.12c13.3,0,24.12,10.82,24.12,24.12v18.16
      H258.525z"/>
    <path d="M214.915,89.1c5.54,0,10.03,4.49,10.03,10.02c0,5.54-4.49,10.03-10.03,10.03H82.585c-5.54,0-10.03-4.49-10.03-10.03
      c0-5.53,4.49-10.02,10.03-10.02H214.915z"/>
    <path d="M214.915,122.18c5.54,0,10.03,4.49,10.03,10.03c0,5.53-4.49,10.02-10.03,10.02H82.585c-5.54,0-10.03-4.49-10.03-10.02
      c0-5.54,4.49-10.03,10.03-10.03H214.915z"/>
    <path d="M214.915,155.27c5.54,0,10.03,4.49,10.03,10.02c0,5.54-4.49,10.03-10.03,10.03H82.585c-5.54,0-10.03-4.49-10.03-10.03
      c0-5.53,4.49-10.02,10.03-10.02H214.915z"/>
    <path d="M214.915,188.35c5.54,0,10.03,4.49,10.03,10.03c0,5.53-4.49,10.02-10.03,10.02h-33.08c-5.54,0-10.03-4.49-10.03-10.02
      c0-5.54,4.49-10.03,10.03-10.03H214.915z"/>
</svg>
