<svg width="114" height="32" viewBox="0 0 114 32" fill="none" xmlns="http://www.w3.org/2000/svg">
<path d="M12.0355 31.56C19.2355 31.56 23.3955 27.2 23.3955 22.24C23.3955 18.04 21.1955 15.56 17.5155 14.08L13.7955 12.6C11.1555 11.56 9.31547 10.92 9.31547 9.24C9.31547 7.68 10.6355 6.8 12.8355 6.8C15.1555 6.8 16.9955 7.6 18.9555 9.08L22.5155 4.6C19.9155 2 16.2755 0.679999 12.8355 0.679999C6.51547 0.679999 2.03547 4.68 2.03547 9.68C2.03547 14 4.95547 16.6 8.07547 17.84L11.8755 19.44C14.4355 20.52 16.0755 21.08 16.0755 22.8C16.0755 24.4 14.8355 25.4 12.1955 25.4C9.83547 25.4 7.07547 24.16 4.99547 22.36L0.915469 27.28C3.99547 30.12 8.15547 31.56 12.0355 31.56ZM28.3423 31H35.5023V18.76H45.3023V31H52.4223V1.2H45.3023V12.56H35.5023V1.2H28.3423V31ZM71.5989 31.56C79.7189 31.56 85.2389 25.72 85.2389 15.96C85.2389 6.24 79.7189 0.679999 71.5989 0.679999C63.4789 0.679999 57.9589 6.2 57.9589 15.96C57.9589 25.72 63.4789 31.56 71.5989 31.56ZM71.5989 25.4C67.6789 25.4 65.2789 21.72 65.2789 15.96C65.2789 10.2 67.6789 6.8 71.5989 6.8C75.5189 6.8 77.9589 10.2 77.9589 15.96C77.9589 21.72 75.5189 25.4 71.5989 25.4ZM90.7642 31H97.9242V21.12H101.404C107.724 21.12 113.164 18 113.164 10.92C113.164 3.56 107.764 1.2 101.244 1.2H90.7642V31ZM97.9242 15.48V6.88H100.844C104.284 6.88 106.204 7.92 106.204 10.92C106.204 13.84 104.524 15.48 101.044 15.48H97.9242Z" fill="white"/>
</svg>
