<svg width="current" height="current" viewBox="0 0 30 30" fill="none" xmlns="http://www.w3.org/2000/svg">
  <path
    d="M28.6233 0.9375H27.3047V1.3575C25.4691 1.76812 25.2052 3.47203 25.1016 4.12312C25.0523 4.43109 24.9525 5.03344 24.8287 5.77125H1.86937C0.960937 5.77125 0.859218 6.62016 0.977812 7.08984L3.67125 18.9806C3.78937 19.4503 4.28672 19.8337 4.77422 19.8337H24.9042C25.3889 19.8337 25.7841 20.228 25.7841 20.7127C25.7841 21.1973 25.3889 21.5916 24.9042 21.5916H2.93203C2.69893 21.5916 2.47538 21.6842 2.31055 21.849C2.14572 22.0138 2.05312 22.2374 2.05312 22.4705C2.05312 22.7036 2.14572 22.9271 2.31055 23.0919C2.47538 23.2568 2.69893 23.3494 2.93203 23.3494H4.07109C3.52111 23.653 3.06262 24.0986 2.74339 24.6397C2.42417 25.1808 2.25589 25.7975 2.25609 26.4258H3.135C3.135 27.8813 4.31625 29.0625 5.77172 29.0625C7.22719 29.0625 8.40844 27.8813 8.40844 26.4258H9.28734C9.28745 25.7975 9.11908 25.1807 8.79978 24.6396C8.48047 24.0985 8.02191 23.653 7.47187 23.3494H19.8909C19.3409 23.653 18.8823 24.0985 18.563 24.6396C18.2437 25.1807 18.0754 25.7975 18.0755 26.4258H18.9544C18.9674 27.1166 19.251 27.7747 19.7441 28.2587C20.2373 28.7426 20.9006 29.0137 21.5916 29.0137C22.2825 29.0137 22.9459 28.7426 23.439 28.2587C23.9322 27.7747 24.2157 27.1166 24.2287 26.4258H25.1077C25.1077 25.7976 24.9394 25.1808 24.6202 24.6398C24.3009 24.0987 23.8425 23.6531 23.2927 23.3494H24.9052C25.6043 23.349 26.2748 23.0711 26.7692 22.5767C27.2636 22.0823 27.5415 21.4118 27.5419 20.7127C27.5418 20.3663 27.4735 20.0234 27.341 19.7035C27.2084 19.3835 27.0141 19.0929 26.7691 18.848C26.5242 18.6032 26.2334 18.409 25.9135 18.2765C25.5935 18.144 25.2505 18.0759 24.9042 18.0759H24.5775L25.7016 11.0869C26.0147 9.24094 26.6897 5.25328 26.8481 4.26141C26.9278 3.76031 27.0052 3.40828 27.3047 3.21094V3.57375H28.6233C28.7396 3.57338 28.851 3.52705 28.9333 3.44486C29.0156 3.36267 29.062 3.25129 29.0625 3.135V1.37719C29.0623 1.26073 29.0159 1.14911 28.9336 1.06672C28.8513 0.98433 28.7397 0.937871 28.6233 0.9375ZM5.77172 27.7444C5.42212 27.744 5.08695 27.605 4.83974 27.3578C4.59254 27.1106 4.4535 26.7754 4.45312 26.4258H7.08984C7.08947 26.7753 6.95049 27.1104 6.70339 27.3576C6.45629 27.6048 6.12123 27.7439 5.77172 27.7444ZM21.592 27.7444C21.2423 27.7441 20.9071 27.6051 20.6598 27.3579C20.4124 27.1107 20.2733 26.7755 20.273 26.4258H22.9106C22.91 26.7753 22.7709 27.1103 22.5237 27.3575C22.2766 27.6046 21.9416 27.7438 21.592 27.7444ZM20.5106 7.96594C20.5261 7.8468 20.5838 7.73718 20.6733 7.65701C20.7627 7.57683 20.878 7.53143 20.9981 7.52906H23.7811C24.023 7.52906 24.1912 7.72406 24.1533 7.96359L23.8777 9.73125C23.8411 9.97031 23.6119 10.1658 23.3695 10.1658H20.715C20.6591 10.1673 20.6035 10.1566 20.5522 10.1346C20.5008 10.1125 20.4548 10.0796 20.4173 10.0381C20.3798 9.9966 20.3518 9.94747 20.3351 9.89409C20.3185 9.84071 20.3136 9.78436 20.3208 9.72891L20.5106 7.96594ZM20.0377 12.3605C20.0534 12.2415 20.1112 12.132 20.2006 12.0519C20.29 11.9717 20.4051 11.9262 20.5252 11.9236H23.0953C23.3377 11.9236 23.5055 12.1186 23.4689 12.3581L23.2612 13.6866C23.2242 13.9256 22.9955 14.1211 22.7531 14.1211H20.2889C20.2331 14.1224 20.1776 14.1117 20.1263 14.0896C20.0749 14.0675 20.029 14.0346 19.9916 13.9931C19.9541 13.9516 19.9261 13.9025 19.9094 13.8492C19.8927 13.7959 19.8877 13.7396 19.8947 13.6842L20.0377 12.3605ZM3.21844 9.73922L2.77312 7.95563C2.715 7.72031 2.86594 7.52906 3.10828 7.52906H6.41719C6.66 7.52906 6.8789 7.72547 6.90469 7.96594L7.09406 9.72937C7.10109 9.78476 7.09608 9.84101 7.07939 9.89428C7.0627 9.94755 7.03471 9.9966 6.99733 10.0381C6.95995 10.0795 6.91407 10.1125 6.86281 10.1346C6.81155 10.1567 6.75612 10.1675 6.70031 10.1663H3.76547C3.52359 10.1663 3.27703 9.97359 3.21844 9.73922ZM4.75172 14.1211C4.50984 14.1211 4.26328 13.9289 4.20516 13.6945L3.86953 12.3506C3.81094 12.1153 3.96094 11.9241 4.20328 11.9241H6.88875C7.13109 11.9241 7.35047 12.1205 7.37625 12.3609L7.51875 13.6847C7.52586 13.7401 7.52091 13.7964 7.50424 13.8497C7.48758 13.903 7.4596 13.9521 7.4222 13.9935C7.38481 14.035 7.33889 14.068 7.2876 14.0901C7.2363 14.1121 7.18084 14.1229 7.125 14.1216H4.75172V14.1211ZM7.54969 18.0764H5.73797C5.49469 18.0764 5.24953 17.8842 5.19094 17.6498L4.85531 16.3059C4.79719 16.0706 4.94719 15.8794 5.19 15.8794H7.31344C7.55578 15.8794 7.77515 16.0758 7.80187 16.3162L7.94344 17.64C7.95055 17.6954 7.94561 17.7516 7.92894 17.8049C7.91227 17.8582 7.88428 17.9073 7.84688 17.9487C7.80948 17.9902 7.76355 18.023 7.71225 18.0451C7.66096 18.0671 7.6055 18.0778 7.54969 18.0764ZM12.9366 17.6367C12.9361 17.7533 12.8895 17.865 12.8069 17.9474C12.7243 18.0298 12.6126 18.0762 12.4959 18.0764H10.2033C10.0833 18.0739 9.96809 18.0285 9.87873 17.9483C9.78936 17.8681 9.73171 17.7586 9.71625 17.6395L9.57375 16.3158C9.56649 16.2604 9.57131 16.2041 9.58788 16.1507C9.60446 16.0974 9.6324 16.0483 9.66977 16.0068C9.70714 15.9652 9.75307 15.9323 9.80438 15.9102C9.8557 15.8882 9.91119 15.8775 9.96703 15.8789H12.4959C12.6126 15.8789 12.7246 15.9252 12.8072 16.0076C12.8898 16.0901 12.9363 16.2019 12.9366 16.3186V17.6367ZM12.9366 13.6819C12.9361 13.7985 12.8895 13.9102 12.8069 13.9926C12.7243 14.0749 12.6126 14.1213 12.4959 14.1216H9.77812C9.53625 14.1216 9.31781 13.9252 9.29062 13.6847L9.14906 12.3609C9.14188 12.3056 9.14676 12.2493 9.16337 12.196C9.17997 12.1427 9.20791 12.0936 9.24527 12.0521C9.28263 12.0106 9.32852 11.9777 9.3798 11.9556C9.43107 11.9335 9.48652 11.9227 9.54234 11.9241H12.4959C12.6126 11.9241 12.7246 11.9704 12.8072 12.0528C12.8898 12.1352 12.9363 12.2471 12.9366 12.3637V13.6819ZM12.9366 9.72656C12.9361 9.84318 12.8895 9.95487 12.8069 10.0373C12.7243 10.1196 12.6126 10.166 12.4959 10.1663H9.35437C9.23426 10.1639 9.11899 10.1185 9.02953 10.0383C8.94006 9.95813 8.88235 9.84851 8.86687 9.72937L8.6775 7.96594C8.67039 7.91054 8.67534 7.85426 8.692 7.80095C8.70867 7.74764 8.73665 7.69856 8.77405 7.65708C8.81144 7.61559 8.85736 7.58267 8.90865 7.56057C8.95995 7.53848 9.01541 7.52773 9.07125 7.52906H12.4964C12.6131 7.52906 12.725 7.57536 12.8076 7.65779C12.8903 7.74022 12.9368 7.85205 12.937 7.96875V9.72656H12.9366ZM17.6986 17.6395C17.683 17.7586 17.6253 17.8682 17.5358 17.9484C17.4464 18.0285 17.3312 18.0739 17.2111 18.0764H15.1392C15.0226 18.0762 14.9109 18.0298 14.8284 17.9474C14.7459 17.865 14.6994 17.7533 14.6991 17.6367V16.3181C14.6993 16.2015 14.7458 16.0897 14.8283 16.0073C14.9108 15.9249 15.0226 15.8786 15.1392 15.8784H17.4473C17.6892 15.8784 17.8673 16.0748 17.8411 16.3153L17.6986 17.6395ZM18.1233 13.6842C18.1077 13.8033 18.05 13.9129 17.9605 13.993C17.8711 14.0732 17.7559 14.1186 17.6358 14.1211H15.1392C15.0226 14.1208 14.9109 14.0745 14.8284 13.9921C14.7459 13.9097 14.6994 13.798 14.6991 13.6814V12.3628C14.6993 12.2462 14.7458 12.1344 14.8283 12.052C14.9108 11.9696 15.0226 11.9232 15.1392 11.9231H17.872C18.1144 11.9231 18.292 12.1195 18.2653 12.36L18.1233 13.6842ZM18.548 9.72937C18.5324 9.84847 18.4747 9.95804 18.3852 10.0382C18.2958 10.1184 18.1805 10.1638 18.0605 10.1663H15.1392C15.0226 10.166 14.9109 10.1196 14.8284 10.0372C14.7459 9.95483 14.6994 9.84314 14.6991 9.72656V7.96875C14.6993 7.85213 14.7458 7.74037 14.8283 7.65795C14.9108 7.57554 15.0226 7.52919 15.1392 7.52906H18.3441C18.5864 7.52906 18.7641 7.72547 18.7383 7.96594L18.548 9.72937ZM21.938 18.0764V18.0731L21.9342 18.0764H19.8642C19.8506 18.0764 19.8389 18.0698 19.8253 18.068C19.823 18.052 19.823 18.0361 19.8202 18.0192L19.7995 18.0623C19.8052 18.0639 19.811 18.0651 19.8169 18.0661C19.6008 18.0413 19.4461 17.8627 19.4709 17.6395L19.6125 16.3158C19.6282 16.1968 19.686 16.0873 19.7754 16.0072C19.8649 15.9271 19.98 15.8816 20.1 15.8789H22.4794C22.7217 15.8789 22.8886 16.0739 22.852 16.3134L22.6444 17.6419C22.6083 17.8809 22.3795 18.0764 22.1372 18.0764H21.938Z"
    fill="current" />
</svg>