<svg width="current" height="current" viewBox="0 0 28 33" fill="none" xmlns="http://www.w3.org/2000/svg">
  <path
    d="M7 15C7 14.4477 7.44772 14 8 14C8.55228 14 9 14.4477 9 15V27C9 27.5523 8.55228 28 8 28C7.44772 28 7 27.5523 7 27V15Z"
    fill="current" />
  <path
    d="M13 15C13 14.4477 13.4477 14 14 14C14.5523 14 15 14.4477 15 15V27C15 27.5523 14.5523 28 14 28C13.4477 28 13 27.5523 13 27V15Z"
    fill="current" />
  <path
    d="M19 15C19 14.4477 19.4477 14 20 14C20.5523 14 21 14.4477 21 15V27C21 27.5523 20.5523 28 20 28C19.4477 28 19 27.5523 19 27V15Z"
    fill="current" />
  <path
    d="M3 9V31C3 31.5523 3.44772 32 4 32H24C24.5523 32 25 31.5523 25 31V9H26V31C26 32.1046 25.1046 33 24 33H4C2.89543 33 2 32.1046 2 31V9H3Z"
    fill="current" />
  <path fill-rule="evenodd" clip-rule="evenodd"
    d="M11 3V1C11 0.447715 11.4477 0 12 0H16C16.5523 0 17 0.447715 17 1V3H27C27.5523 3 28 3.44772 28 4V7C28 7.55228 27.5523 8 27 8H1C0.447715 8 0 7.55228 0 7V4C0 3.44772 0.447715 3 1 3H11ZM12 1H16V3H12V1ZM1 4L1 7H27V4H1Z"
    fill="current" />
</svg>